<svg width="23" height="23" viewBox="0 0 23 23" fill="none" xmlns="http://www.w3.org/2000/svg">
<path d="M11.502 0C17.8442 0 23.0039 5.1588 23.0039 11.5004C23.0039 17.841 17.8442 23 11.502 23C5.15973 23 0.000259399 17.841 0.000259399 11.5004C0.000259399 5.1588 5.15973 0 11.502 0ZM8.03325 11.6754L13.1759 16.8171C13.2694 16.9107 13.4346 16.9107 13.5282 16.8171L13.9468 16.3991C14.0436 16.302 14.0434 16.1437 13.9466 16.0465L9.52017 11.6214C9.48698 11.5878 9.46815 11.5421 9.46815 11.494C9.46815 11.4467 9.48717 11.4006 9.52017 11.3673L13.9386 6.94974C13.9852 6.90313 14.0113 6.84049 14.0113 6.773C14.0113 6.70681 13.9854 6.64379 13.9388 6.59756L13.5207 6.17919C13.4739 6.13258 13.4111 6.10666 13.3445 6.10666C13.2776 6.10629 13.2153 6.13258 13.1685 6.17919L8.03325 11.3134C7.9857 11.3607 7.95997 11.4239 7.9609 11.4968C7.95997 11.5647 7.9857 11.6281 8.03325 11.6754Z" fill="#2F2F2F"/>
</svg>
