<svg width="26" height="26" viewBox="0 0 26 26" fill="none" xmlns="http://www.w3.org/2000/svg">
<path d="M5.875 0.25C6.49844 0.25 7 0.751562 7 1.375V3.25H14.5V1.375C14.5 0.751562 15.0016 0.25 15.625 0.25C16.2484 0.25 16.75 0.751562 16.75 1.375V3.25H18.25C19.9047 3.25 21.25 4.59531 21.25 6.25V10.2812C20.5328 10.0984 19.7781 10 19 10C17.7203 10 16.5016 10.2672 15.3953 10.75H2.5V19.75C2.5 20.1625 2.8375 20.5 3.25 20.5H10.1266C10.2578 21.2875 10.4922 22.0422 10.8203 22.75H3.25C1.59531 22.75 0.25 21.4047 0.25 19.75V6.25C0.25 4.59531 1.59531 3.25 3.25 3.25H4.75V1.375C4.75 0.751562 5.25156 0.25 5.875 0.25ZM5.875 5.5H3.25C2.8375 5.5 2.5 5.8375 2.5 6.25V8.5H19V6.25C19 5.8375 18.6625 5.5 18.25 5.5H5.875ZM19 12.25C20.7902 12.25 22.5071 12.9612 23.773 14.227C25.0388 15.4929 25.75 17.2098 25.75 19C25.75 20.7902 25.0388 22.5071 23.773 23.773C22.5071 25.0388 20.7902 25.75 19 25.75C17.2098 25.75 15.4929 25.0388 14.227 23.773C12.9612 22.5071 12.25 20.7902 12.25 19C12.25 17.2098 12.9612 15.4929 14.227 14.227C15.4929 12.9612 17.2098 12.25 19 12.25ZM19.75 16C19.75 15.5875 19.4125 15.25 19 15.25C18.5875 15.25 18.25 15.5875 18.25 16V18.25H16C15.5875 18.25 15.25 18.5875 15.25 19C15.25 19.4125 15.5875 19.75 16 19.75H18.25V22C18.25 22.4125 18.5875 22.75 19 22.75C19.4125 22.75 19.75 22.4125 19.75 22V19.75H22C22.4125 19.75 22.75 19.4125 22.75 19C22.75 18.5875 22.4125 18.25 22 18.25H19.75V16Z" fill="#0B61B0"/>
</svg>
