<svg width="20" height="20" viewBox="0 0 20 20" fill="none" xmlns="http://www.w3.org/2000/svg">
<path d="M7.00628 2.78163C6.75941 2.19101 6.11566 1.87851 5.50316 2.04413L5.33128 2.09101C3.31253 2.64101 1.58753 4.59726 2.09066 6.97851C3.25003 12.4473 7.55316 16.7504 13.0219 17.9098C15.4063 18.416 17.3594 16.6879 17.9094 14.6691L17.9563 14.4973C18.125 13.8816 17.8094 13.2379 17.2219 12.9941L14.1813 11.7285C13.6657 11.5129 13.0688 11.6629 12.7125 12.0973L11.5063 13.5723C9.30941 12.4816 7.54066 10.6566 6.52503 8.41601L7.90628 7.29101C8.34066 6.93788 8.48753 6.34101 8.27503 5.82226L7.00628 2.78163Z" fill="white"/>
</svg>
