<svg width="85" height="86" viewBox="0 0 85 86" fill="none" xmlns="http://www.w3.org/2000/svg">
<path d="M10 8H50C51.375 8 52.5 9.125 52.5 10.5V34.7031C54.875 33.8594 57.3906 33.3125 60 33.0938V10.5C60 4.98438 55.5156 0.5 50 0.5H10C4.48438 0.5 0 4.98438 0 10.5V70.5C0 76.0156 4.48438 80.5 10 80.5H38.125C36.4844 78.2188 35.1562 75.7031 34.2031 73H10C8.625 73 7.5 71.875 7.5 70.5V10.5C7.5 9.125 8.625 8 10 8ZM15 24.25C15 26.3281 16.6719 28 18.75 28H41.25C43.3281 28 45 26.3281 45 24.25C45 22.1719 43.3281 20.5 41.25 20.5H18.75C16.6719 20.5 15 22.1719 15 24.25ZM15 39.25C15 41.3281 16.6719 43 18.75 43H31.25C33.3281 43 35 41.3281 35 39.25C35 37.1719 33.3281 35.5 31.25 35.5H18.75C16.6719 35.5 15 37.1719 15 39.25ZM15 54.25C15 56.3281 16.6719 58 18.75 58H26.25C28.3281 58 30 56.3281 30 54.25C30 52.1719 28.3281 50.5 26.25 50.5H18.75C16.6719 50.5 15 52.1719 15 54.25ZM85 63C85 57.0326 82.6295 51.3097 78.4099 47.0901C74.1903 42.8705 68.4674 40.5 62.5 40.5C56.5326 40.5 50.8097 42.8705 46.5901 47.0901C42.3705 51.3097 40 57.0326 40 63C40 68.9674 42.3705 74.6903 46.5901 78.9099C50.8097 83.1295 56.5326 85.5 62.5 85.5C68.4674 85.5 74.1903 83.1295 78.4099 78.9099C82.6295 74.6903 85 68.9674 85 63ZM71.4688 53.4844C72.5781 54.2969 72.8281 55.8594 72.0156 56.9688L62.0156 70.7188C61.5781 71.3125 60.9219 71.6875 60.1875 71.7344C59.4531 71.7812 58.7344 71.5312 58.2188 71.0156L51.9688 64.7656C51 63.7969 51 62.2031 51.9688 61.2344C52.9375 60.2656 54.5313 60.2656 55.5 61.2344L59.6875 65.4219L67.9688 54.0312C68.7812 52.9219 70.3438 52.6719 71.4688 53.4844Z" fill="#3197D3"/>
</svg>
