<svg width="19" height="26" viewBox="0 0 19 26" fill="none" xmlns="http://www.w3.org/2000/svg">
<path d="M3.16667 2.4375H8.70833V6.90625C8.70833 8.92734 10.3016 10.5625 12.2708 10.5625H16.625V22.75C16.625 23.1969 16.2688 23.5625 15.8333 23.5625H3.16667C2.73125 23.5625 2.375 23.1969 2.375 22.75V3.25C2.375 2.80312 2.73125 2.4375 3.16667 2.4375ZM11.0833 3.44805L15.6404 8.125H12.2708C11.6128 8.125 11.0833 7.58164 11.0833 6.90625V3.44805ZM3.16667 0C1.42005 0 0 1.45742 0 3.25V22.75C0 24.5426 1.42005 26 3.16667 26H15.8333C17.5799 26 19 24.5426 19 22.75V9.4707C19 8.60742 18.6685 7.77969 18.0747 7.17031L12.0086 0.949609C11.4148 0.340234 10.6133 0 9.77214 0H3.16667ZM8.075 13.4875C7.67917 12.9492 6.93698 12.8375 6.4125 13.2437C5.88802 13.65 5.77917 14.4117 6.175 14.95L8.01562 17.4688L6.175 19.9875C5.77917 20.5258 5.88802 21.2875 6.4125 21.6938C6.93698 22.1 7.67917 21.9883 8.075 21.45L9.5 19.5L10.925 21.45C11.3208 21.9883 12.063 22.1 12.5875 21.6938C13.112 21.2875 13.2208 20.5258 12.825 19.9875L10.9844 17.4688L12.825 14.95C13.2208 14.4117 13.112 13.65 12.5875 13.2437C12.063 12.8375 11.3208 12.9492 10.925 13.4875L9.5 15.4375L8.075 13.4875Z" fill="#0B61B0"/>
</svg>
