<svg width="30" height="31" viewBox="0 0 30 31" fill="none" xmlns="http://www.w3.org/2000/svg">
<path d="M15 27.5C18.1826 27.5 21.2348 26.2357 23.4853 23.9853C25.7357 21.7348 27 18.6826 27 15.5C27 12.3174 25.7357 9.26516 23.4853 7.01472C21.2348 4.76428 18.1826 3.5 15 3.5C11.8174 3.5 8.76516 4.76428 6.51472 7.01472C4.26428 9.26516 3 12.3174 3 15.5C3 18.6826 4.26428 21.7348 6.51472 23.9853C8.76516 26.2357 11.8174 27.5 15 27.5ZM10.8281 11.3281C11.2688 10.8875 11.9812 10.8875 12.4172 11.3281L14.9953 13.9062L17.5734 11.3281C18.0141 10.8875 18.7266 10.8875 19.1625 11.3281C19.5984 11.7688 19.6031 12.4812 19.1625 12.9172L16.5844 15.4953L19.1625 18.0734C19.6031 18.5141 19.6031 19.2266 19.1625 19.6625C18.7219 20.0984 18.0094 20.1031 17.5734 19.6625L14.9953 17.0844L12.4172 19.6625C11.9766 20.1031 11.2641 20.1031 10.8281 19.6625C10.3922 19.2219 10.3875 18.5094 10.8281 18.0734L13.4062 15.4953L10.8281 12.9172C10.3875 12.4766 10.3875 11.7641 10.8281 11.3281Z" fill="#087CC0"/>
</svg>
