<svg width="20" height="20" viewBox="0 0 20 20" fill="none" xmlns="http://www.w3.org/2000/svg">
<path d="M4.5 14.5C4.23478 14.5 3.98043 14.3946 3.79289 14.2071C3.60536 14.0196 3.5 13.7652 3.5 13.5C3.5 13.2348 3.60536 12.9804 3.79289 12.7929C3.98043 12.6054 4.23478 12.5 4.5 12.5C4.76522 12.5 5.01957 12.6054 5.20711 12.7929C5.39464 12.9804 5.5 13.2348 5.5 13.5C5.5 13.7652 5.39464 14.0196 5.20711 14.2071C5.01957 14.3946 4.76522 14.5 4.5 14.5ZM6.88438 12.75C6.56563 11.7344 5.61875 11 4.5 11C3.11875 11 2 12.1187 2 13.5C2 14.8813 3.11875 16 4.5 16C5.61875 16 6.56563 15.2656 6.88438 14.25H17.25C17.6656 14.25 18 13.9156 18 13.5C18 13.0844 17.6656 12.75 17.25 12.75H6.88438ZM16.5 6.5C16.5 6.76522 16.3946 7.01957 16.2071 7.20711C16.0196 7.39464 15.7652 7.5 15.5 7.5C15.2348 7.5 14.9804 7.39464 14.7929 7.20711C14.6054 7.01957 14.5 6.76522 14.5 6.5C14.5 6.23478 14.6054 5.98043 14.7929 5.79289C14.9804 5.60536 15.2348 5.5 15.5 5.5C15.7652 5.5 16.0196 5.60536 16.2071 5.79289C16.3946 5.98043 16.5 6.23478 16.5 6.5ZM13.1156 5.75H2.75C2.33437 5.75 2 6.08437 2 6.5C2 6.91563 2.33437 7.25 2.75 7.25H13.1156C13.4344 8.26562 14.3813 9 15.5 9C16.8813 9 18 7.88125 18 6.5C18 5.11875 16.8813 4 15.5 4C14.3813 4 13.4344 4.73438 13.1156 5.75Z" fill="#022F57"/>
</svg>
