<svg width="230" height="176" viewBox="0 0 230 176" fill="none" xmlns="http://www.w3.org/2000/svg">
<path d="M157.15 21.8082C158.029 21.6585 159.118 21.6665 160 21.795C160.848 21.9186 161.802 22.2237 162.32 22.9573C162.607 23.3623 162.74 23.8469 162.636 24.3386C162.236 26.22 159.444 26.4214 157.954 26.9999C150.756 29.7925 145.296 35.5126 138.979 39.7357C137.368 40.8126 131.422 44.3535 129.701 44.5228C126.385 44.8489 124.229 37.0687 119.862 36.2591C113.958 35.1644 104.983 48.2711 101.312 52.4224C99.6464 54.3054 97.816 56.1041 95.7192 57.5062C94.3663 58.4109 90.4638 60.7612 88.8405 60.3672C87.1463 59.956 87.3104 56.5954 86.4636 55.2837C86.2031 54.8802 85.8053 54.4003 85.3045 54.3181C84.3885 54.1678 83.5387 54.8748 82.8754 55.4211C80.282 57.557 77.5471 60.5569 75.1404 62.9541L59.9837 77.9675C56.3023 81.5512 52.5255 85.3532 48.3876 88.4165C44.1532 91.5514 43.6897 86.7769 41.3351 86.5207C40.7628 86.4584 40.226 86.7299 39.7857 87.0697C38.2065 88.2889 36.8134 89.962 35.4136 91.3965C31.7171 95.1845 28.1201 99.2053 23.9827 102.517C22.5572 103.607 20.629 105.457 18.8301 105.813C17.9153 105.994 16.7698 105.934 15.9799 105.387C15.6526 105.16 15.4171 104.826 15.3608 104.427C15.2584 103.697 15.6946 102.947 16.1313 102.399C19.6405 97.9999 24.3131 94.5374 28.2575 90.5406C30.3393 88.4313 31.9469 85.8441 34.1614 83.8923C35.7911 82.4561 37.6896 80.9636 39.7654 80.2393C44.8931 78.4501 45.7446 82.8174 50.6524 78.9915C55.481 75.2273 59.311 70.5106 63.3319 65.9411C68.3019 60.293 74.7945 53.6334 81.2495 49.6701C82.7277 48.7624 84.3777 47.7222 86.1399 47.5315C88.9449 47.2279 89.1656 48.6781 90.9561 50.0762C91.3983 50.4216 91.8841 50.5359 92.4183 50.3176C93.8301 49.7405 95.6241 47.5414 96.7313 46.4326C103.288 39.8676 110.625 32.0077 120.335 30.7489C123.387 30.3535 124.369 30.4262 126.629 32.6051C127.468 33.414 128.312 34.2214 129.113 35.0681C129.671 35.6577 130.199 36.3235 130.847 36.8144C131.509 37.3171 132.311 37.5892 133.116 37.2639C134.645 36.6468 136.122 35.0884 137.387 34.048L143.47 29.0801C147.648 25.7014 151.664 22.5646 157.15 21.8082Z" fill="white"/>
<path d="M173.767 35.7065C173.938 35.7132 174.108 35.7214 174.277 35.746C174.733 35.8127 175.217 36.0798 175.487 36.4562C176.493 37.8578 174.413 41.036 174.133 42.6297C173.556 45.9196 176.651 44.6428 177.655 46.0812C177.721 46.2959 177.743 46.4619 177.687 46.683C177.539 47.2802 177.028 47.9532 176.487 48.2512C175.485 48.8027 173.093 48.9315 172.008 48.6089C170.125 48.0491 171.514 46.5548 170.854 45.4809C170.643 45.1383 170.241 44.9871 169.869 44.9038C169.463 44.9643 169.225 45.0628 168.923 45.348C168.145 46.0816 167.591 47.096 166.904 47.9186C165.434 49.6778 163.643 51.2581 161.832 52.6572C157.637 55.8999 152.854 58.3317 148.296 61.0132C145.86 62.4458 143.533 64.0643 141.138 65.5626C136.569 68.4207 131.975 71.1882 127.697 74.4802C126.456 75.4343 125.14 77.0662 123.723 77.6749C123.297 77.8578 122.797 77.9161 122.363 77.7249C121.909 77.5253 121.442 77.0453 121.262 76.5828C121.129 76.2397 121.15 75.9239 121.303 75.5912C121.696 74.7377 123.197 73.4815 123.876 72.7735C130.005 66.3695 137.842 61.9081 145.633 57.8454C151.116 54.9865 156.684 52.2319 161.519 48.3256C163.611 46.6232 165.532 44.7212 167.254 42.6465C169.357 40.152 170.411 36.824 173.767 35.7065Z" fill="white"/>
<path d="M195.589 15.0612C195.838 15.0381 196.09 15.0157 196.34 15.0156C200.016 15.0138 200.319 20.2289 202.383 22.2469C202.747 22.6026 203.267 22.9224 203.787 22.9559C205.919 23.0937 209.954 19.5785 212.229 19.6135C212.585 19.619 212.948 19.7428 213.194 20.0067C213.408 20.2369 213.527 20.4399 213.5 20.772C213.44 21.4994 212.955 22.2954 212.633 22.9395C211.636 24.9372 208.77 29.6257 208.571 31.5216C208.315 33.9697 214.914 39.3731 214.772 42.1363C214.753 42.4996 214.619 42.8287 214.329 43.0611C214.061 43.2767 213.706 43.3764 213.369 43.4172C212.608 43.5092 211.798 43.4001 211.024 43.4408C208.97 43.5488 206.84 43.9026 204.79 43.7212C203.583 43.6142 201.833 43.3022 201.041 42.3181C200.636 41.8156 200.658 41.387 200.726 40.7771C202.623 38.3721 206.68 41.0651 208.741 40.0008C208.942 39.8993 209.086 39.7131 209.134 39.4936C209.505 37.8302 205.109 34.02 204.222 32.5079C203.241 30.8362 205.228 29.1275 205.973 27.7788C206.281 27.2192 206.435 26.5622 206.607 25.9497C204.938 26.2389 202.52 27.4924 200.863 26.8173C198.518 25.8619 197.144 20.5552 196.23 18.3015C194.756 20.1085 194.292 22.2033 193.871 24.435C193.756 25.0399 193.673 25.8348 193.381 26.3739C193.215 26.6784 192.923 26.8475 192.603 26.9534C192.315 27.0488 192.048 27.0899 191.771 26.9316C191.389 26.7135 191.198 26.2159 191.091 25.8129C190.377 23.1091 191.225 19.7919 192.593 17.4263C193.334 16.1461 194.162 15.4425 195.589 15.0612Z" fill="white"/>
<path d="M103.42 87.6601C103.896 87.6259 104.339 87.6627 104.759 87.9059C105.071 88.0858 105.274 88.3614 105.348 88.7133C105.559 89.7255 104.844 90.8088 104.304 91.604C100.353 97.4182 94.9907 101.981 88.994 105.581C87.8952 106.24 86.5067 107.244 85.2391 107.468C84.9455 107.52 84.673 107.519 84.4271 107.328C84.1983 107.151 84.0625 106.882 84.0276 106.597C83.9966 106.344 84.0332 106.079 84.1812 105.867C85.5866 103.857 89.2437 101.572 91.1814 99.1702L91.3259 98.904L91.2404 98.7842C89.3669 98.5277 84.2314 101.734 82.1691 102.493C80.8962 102.961 79.6407 103.203 78.2871 103.249L78.3299 103.178C79.9281 100.521 82.4674 98.599 84.9376 96.8027C90.5546 92.7182 96.6323 89.3305 103.42 87.6601Z" fill="white"/>
<path d="M107.986 63.0371C108.1 63.0561 108.214 63.0857 108.326 63.117C108.638 63.2051 108.988 63.3775 109.135 63.6838C109.642 64.7432 106.909 67.1731 106.23 68.0377C105.669 68.7509 105.161 69.5258 104.83 70.3736C103.867 72.8394 104.737 74.7818 106.467 76.5907C107.082 77.2337 107.809 77.8923 108.166 78.7219C108.35 79.1494 108.45 79.5228 108.264 79.9721C107.236 82.4628 97.002 85.6375 94.2356 86.6651C92.6063 87.2811 90.9939 87.9407 89.4001 88.643C88.2924 89.1282 87.1765 89.5941 86.0527 90.0407C87.3331 87.745 89.0288 85.7999 91.0542 84.1279C92.6105 82.8432 94.3531 81.5963 96.1018 80.5846C97.084 80.0164 98.1816 79.5816 99.0973 78.9107C99.5481 78.5804 99.9602 78.187 100.202 77.6757C101.029 75.9293 99.2823 73.5399 100.365 70.7693C101.328 68.3031 105.585 64.1002 107.986 63.0371Z" fill="white"/>
<path d="M130.854 77.207C131.721 77.1969 132.437 77.5338 133.1 78.0901C133.606 78.5161 134.062 79.1184 134.109 79.8005C134.203 81.1151 133.239 82.8464 132.704 84.0371C129.151 91.776 124.529 98.9784 118.972 105.434C118.269 106.089 117.671 106.342 116.77 106.604C117.182 104.89 117.668 103.195 118.227 101.523C119.865 96.5842 122.168 92.1007 124.429 87.438C125.822 84.5619 127.087 81.458 128.993 78.8796C129.534 78.1478 130.027 77.6224 130.854 77.207Z" fill="white"/>
<path d="M164.847 56.3366C164.993 56.3232 165.145 56.3114 165.292 56.3317C165.549 56.3674 165.905 56.5654 166.052 56.7841C166.177 56.9713 166.135 57.0681 166.106 57.2782C165.049 58.9669 158.459 63.6335 156.558 64.9329C151.83 68.1634 146.867 71.0185 141.933 73.9148C140.239 74.9087 138.479 76.2565 136.657 76.9648C136.164 77.1563 135.791 77.1513 135.278 77.0553C134.671 76.7628 133.803 76.3434 133.545 75.6737C133.44 75.4025 133.505 75.1206 133.621 74.8648C135.134 71.5128 152.44 62.0081 156.39 60.0382C159.155 58.6593 161.978 57.4777 164.847 56.3366Z" fill="white"/>
<path d="M190.674 27.6325C190.913 27.6023 191.156 27.5959 191.396 27.6134C191.782 27.6424 192.09 27.837 192.329 28.1337C192.518 28.3697 192.645 28.6488 192.599 28.9562C192.425 30.1293 186.854 32.0971 185.703 32.9892C185.423 33.2066 185.183 33.4354 185.133 33.8031C185.572 34.9361 189.768 34.9774 191.431 36.2312C193.32 37.6543 192.698 41.3813 193.031 43.4775C193.102 43.9278 193.16 44.3268 193.541 44.6055C195.18 44.338 195.3 41.1301 197.012 40.5996C197.248 40.5266 197.508 40.5407 197.726 40.6608C197.948 40.7831 198.083 40.9888 198.149 41.2295C198.551 42.7014 195.601 47.4644 194.751 48.9059C194.068 50.0259 193.166 51.7921 192.118 52.5706C191.846 52.7725 191.608 52.8685 191.264 52.8142C190.878 52.6151 190.731 52.2465 190.638 51.8447C190.437 50.9892 190.486 50.0623 190.485 49.1896C190.484 46.6813 190.932 41.9531 190.167 39.7694C190.006 39.3069 189.766 38.8584 189.36 38.5671C187.899 37.5193 183.815 37.5926 181.927 37.4225C181.308 37.3668 180.606 37.3593 180.039 37.0827C179.701 36.9179 179.45 36.655 179.342 36.2888C179.099 35.4649 179.448 34.3522 179.847 33.6289C181.494 30.6372 187.507 28.516 190.674 27.6325Z" fill="white"/>
<path d="M115.988 58.3871C117.537 58.1181 119.596 58.3344 121.01 59.0191C122.463 59.7354 123.571 61.0001 124.087 62.5336C124.667 64.3072 124.203 66.1915 123.361 67.7972C122.668 69.1164 120.354 71.9781 118.897 72.3451C118.581 72.4248 118.151 72.4058 117.879 72.2112C117.692 72.0765 117.586 71.9165 117.557 71.6911C117.497 71.2545 118.008 70.7324 118.262 70.4012C119.187 69.0878 120.212 67.8006 120.626 66.217C120.865 65.3019 120.873 64.2657 120.363 63.4361C119.428 61.9111 116.418 61.7441 114.817 62.1072C113.929 62.3084 112.721 63.1601 111.8 62.8928C111.222 62.7249 110.824 62.1421 110.528 61.6573C110.508 61.3216 110.542 61.1334 110.758 60.8631C112.006 59.3023 114.089 58.648 115.988 58.3871Z" fill="white"/>
<path d="M46.98 131.1L41.76 145H39.12L33.88 131.1H36.32L40.44 142.66L44.58 131.1H46.98ZM48.1267 139.44C48.1267 138.333 48.3534 137.353 48.8067 136.5C49.2734 135.647 49.9001 134.987 50.6867 134.52C51.4867 134.04 52.3667 133.8 53.3267 133.8C54.1934 133.8 54.9467 133.973 55.5867 134.32C56.2401 134.653 56.7601 135.073 57.1467 135.58V133.98H59.4467V145H57.1467V143.36C56.7601 143.88 56.2334 144.313 55.5667 144.66C54.9001 145.007 54.1401 145.18 53.2867 145.18C52.3401 145.18 51.4734 144.94 50.6867 144.46C49.9001 143.967 49.2734 143.287 48.8067 142.42C48.3534 141.54 48.1267 140.547 48.1267 139.44ZM57.1467 139.48C57.1467 138.72 56.9867 138.06 56.6667 137.5C56.3601 136.94 55.9534 136.513 55.4467 136.22C54.9401 135.927 54.3934 135.78 53.8067 135.78C53.2201 135.78 52.6734 135.927 52.1667 136.22C51.6601 136.5 51.2467 136.92 50.9267 137.48C50.6201 138.027 50.4667 138.68 50.4667 139.44C50.4667 140.2 50.6201 140.867 50.9267 141.44C51.2467 142.013 51.6601 142.453 52.1667 142.76C52.6867 143.053 53.2334 143.2 53.8067 143.2C54.3934 143.2 54.9401 143.053 55.4467 142.76C55.9534 142.467 56.3601 142.04 56.6667 141.48C56.9867 140.907 57.1467 140.24 57.1467 139.48ZM64.7214 130.2V145H62.4414V130.2H64.7214ZM69.9948 130.2V145H67.7148V130.2H69.9948ZM83.0883 139.22C83.0883 139.633 83.0616 140.007 83.0083 140.34H74.5883C74.6549 141.22 74.9816 141.927 75.5683 142.46C76.1549 142.993 76.8749 143.26 77.7283 143.26C78.9549 143.26 79.8216 142.747 80.3283 141.72H82.7883C82.4549 142.733 81.8483 143.567 80.9683 144.22C80.1016 144.86 79.0216 145.18 77.7283 145.18C76.6749 145.18 75.7283 144.947 74.8883 144.48C74.0616 144 73.4083 143.333 72.9283 142.48C72.4616 141.613 72.2283 140.613 72.2283 139.48C72.2283 138.347 72.4549 137.353 72.9083 136.5C73.3749 135.633 74.0216 134.967 74.8483 134.5C75.6883 134.033 76.6483 133.8 77.7283 133.8C78.7683 133.8 79.6949 134.027 80.5083 134.48C81.3216 134.933 81.9549 135.573 82.4083 136.4C82.8616 137.213 83.0883 138.153 83.0883 139.22ZM80.7083 138.5C80.6949 137.66 80.3949 136.987 79.8083 136.48C79.2216 135.973 78.4949 135.72 77.6283 135.72C76.8416 135.72 76.1683 135.973 75.6083 136.48C75.0483 136.973 74.7149 137.647 74.6083 138.5H80.7083ZM95.252 133.98L88.492 150.18H86.132L88.372 144.82L84.032 133.98H86.572L89.672 142.38L92.892 133.98H95.252ZM116.808 131.1V145H114.528V135.48L110.288 145H108.708L104.448 135.48V145H102.168V131.1H104.628L109.508 142L114.368 131.1H116.808ZM124.585 145.18C123.545 145.18 122.605 144.947 121.765 144.48C120.925 144 120.265 143.333 119.785 142.48C119.305 141.613 119.065 140.613 119.065 139.48C119.065 138.36 119.311 137.367 119.805 136.5C120.298 135.633 120.971 134.967 121.825 134.5C122.678 134.033 123.631 133.8 124.685 133.8C125.738 133.8 126.691 134.033 127.545 134.5C128.398 134.967 129.071 135.633 129.565 136.5C130.058 137.367 130.305 138.36 130.305 139.48C130.305 140.6 130.051 141.593 129.545 142.46C129.038 143.327 128.345 144 127.465 144.48C126.598 144.947 125.638 145.18 124.585 145.18ZM124.585 143.2C125.171 143.2 125.718 143.06 126.225 142.78C126.745 142.5 127.165 142.08 127.485 141.52C127.805 140.96 127.965 140.28 127.965 139.48C127.965 138.68 127.811 138.007 127.505 137.46C127.198 136.9 126.791 136.48 126.285 136.2C125.778 135.92 125.231 135.78 124.645 135.78C124.058 135.78 123.511 135.92 123.005 136.2C122.511 136.48 122.118 136.9 121.825 137.46C121.531 138.007 121.385 138.68 121.385 139.48C121.385 140.667 121.685 141.587 122.285 142.24C122.898 142.88 123.665 143.2 124.585 143.2ZM142.539 133.98V145H140.259V143.7C139.899 144.153 139.425 144.513 138.839 144.78C138.265 145.033 137.652 145.16 136.999 145.16C136.132 145.16 135.352 144.98 134.659 144.62C133.979 144.26 133.439 143.727 133.039 143.02C132.652 142.313 132.459 141.46 132.459 140.46V133.98H134.719V140.12C134.719 141.107 134.965 141.867 135.459 142.4C135.952 142.92 136.625 143.18 137.479 143.18C138.332 143.18 139.005 142.92 139.499 142.4C140.005 141.867 140.259 141.107 140.259 140.12V133.98H142.539ZM151.107 133.8C151.974 133.8 152.747 133.98 153.427 134.34C154.12 134.7 154.66 135.233 155.047 135.94C155.434 136.647 155.627 137.5 155.627 138.5V145H153.367V138.84C153.367 137.853 153.12 137.1 152.627 136.58C152.134 136.047 151.46 135.78 150.607 135.78C149.754 135.78 149.074 136.047 148.567 136.58C148.074 137.1 147.827 137.853 147.827 138.84V145H145.547V133.98H147.827V135.24C148.2 134.787 148.674 134.433 149.247 134.18C149.834 133.927 150.454 133.8 151.107 133.8ZM161.195 135.84V141.94C161.195 142.353 161.288 142.653 161.475 142.84C161.675 143.013 162.008 143.1 162.475 143.1H163.875V145H162.075C161.048 145 160.262 144.76 159.715 144.28C159.168 143.8 158.895 143.02 158.895 141.94V135.84H157.595V133.98H158.895V131.24H161.195V133.98H163.875V135.84H161.195ZM165.217 139.44C165.217 138.333 165.443 137.353 165.897 136.5C166.363 135.647 166.99 134.987 167.777 134.52C168.577 134.04 169.457 133.8 170.417 133.8C171.283 133.8 172.037 133.973 172.677 134.32C173.33 134.653 173.85 135.073 174.237 135.58V133.98H176.537V145H174.237V143.36C173.85 143.88 173.323 144.313 172.657 144.66C171.99 145.007 171.23 145.18 170.377 145.18C169.43 145.18 168.563 144.94 167.777 144.46C166.99 143.967 166.363 143.287 165.897 142.42C165.443 141.54 165.217 140.547 165.217 139.44ZM174.237 139.48C174.237 138.72 174.077 138.06 173.757 137.5C173.45 136.94 173.043 136.513 172.537 136.22C172.03 135.927 171.483 135.78 170.897 135.78C170.31 135.78 169.763 135.927 169.257 136.22C168.75 136.5 168.337 136.92 168.017 137.48C167.71 138.027 167.557 138.68 167.557 139.44C167.557 140.2 167.71 140.867 168.017 141.44C168.337 142.013 168.75 142.453 169.257 142.76C169.777 143.053 170.323 143.2 170.897 143.2C171.483 143.2 172.03 143.053 172.537 142.76C173.043 142.467 173.45 142.04 173.757 141.48C174.077 140.907 174.237 140.24 174.237 139.48ZM180.691 132.52C180.278 132.52 179.931 132.38 179.651 132.1C179.371 131.82 179.231 131.473 179.231 131.06C179.231 130.647 179.371 130.3 179.651 130.02C179.931 129.74 180.278 129.6 180.691 129.6C181.091 129.6 181.431 129.74 181.711 130.02C181.991 130.3 182.131 130.647 182.131 131.06C182.131 131.473 181.991 131.82 181.711 132.1C181.431 132.38 181.091 132.52 180.691 132.52ZM181.811 133.98V145H179.531V133.98H181.811ZM190.365 133.8C191.231 133.8 192.005 133.98 192.685 134.34C193.378 134.7 193.918 135.233 194.305 135.94C194.691 136.647 194.885 137.5 194.885 138.5V145H192.625V138.84C192.625 137.853 192.378 137.1 191.885 136.58C191.391 136.047 190.718 135.78 189.865 135.78C189.011 135.78 188.331 136.047 187.825 136.58C187.331 137.1 187.085 137.853 187.085 138.84V145H184.805V133.98H187.085V135.24C187.458 134.787 187.931 134.433 188.505 134.18C189.091 133.927 189.711 133.8 190.365 133.8ZM42.22 170L39.02 164.44H37.28V170H35V156.1H39.8C40.8667 156.1 41.7667 156.287 42.5 156.66C43.2467 157.033 43.8 157.533 44.16 158.16C44.5333 158.787 44.72 159.487 44.72 160.26C44.72 161.167 44.4533 161.993 43.92 162.74C43.4 163.473 42.5933 163.973 41.5 164.24L44.94 170H42.22ZM37.28 162.62H39.8C40.6533 162.62 41.2933 162.407 41.72 161.98C42.16 161.553 42.38 160.98 42.38 160.26C42.38 159.54 42.1667 158.98 41.74 158.58C41.3133 158.167 40.6667 157.96 39.8 157.96H37.28V162.62ZM57.7367 164.22C57.7367 164.633 57.7101 165.007 57.6567 165.34H49.2367C49.3034 166.22 49.6301 166.927 50.2167 167.46C50.8034 167.993 51.5234 168.26 52.3767 168.26C53.6034 168.26 54.4701 167.747 54.9767 166.72H57.4367C57.1034 167.733 56.4967 168.567 55.6167 169.22C54.7501 169.86 53.6701 170.18 52.3767 170.18C51.3234 170.18 50.3767 169.947 49.5367 169.48C48.7101 169 48.0567 168.333 47.5767 167.48C47.1101 166.613 46.8767 165.613 46.8767 164.48C46.8767 163.347 47.1034 162.353 47.5567 161.5C48.0234 160.633 48.6701 159.967 49.4967 159.5C50.3367 159.033 51.2967 158.8 52.3767 158.8C53.4167 158.8 54.3434 159.027 55.1567 159.48C55.9701 159.933 56.6034 160.573 57.0567 161.4C57.5101 162.213 57.7367 163.153 57.7367 164.22ZM55.3567 163.5C55.3434 162.66 55.0434 161.987 54.4567 161.48C53.8701 160.973 53.1434 160.72 52.2767 160.72C51.4901 160.72 50.8167 160.973 50.2567 161.48C49.6967 161.973 49.3634 162.647 49.2567 163.5H55.3567ZM64.4205 158.8C65.2738 158.8 66.0271 158.973 66.6805 159.32C67.3471 159.653 67.8671 160.073 68.2405 160.58V158.98H70.5405V170.18C70.5405 171.193 70.3271 172.093 69.9005 172.88C69.4738 173.68 68.8538 174.307 68.0405 174.76C67.2405 175.213 66.2805 175.44 65.1605 175.44C63.6671 175.44 62.4271 175.087 61.4405 174.38C60.4538 173.687 59.8938 172.74 59.7605 171.54H62.0205C62.1938 172.113 62.5605 172.573 63.1205 172.92C63.6938 173.28 64.3738 173.46 65.1605 173.46C66.0805 173.46 66.8205 173.18 67.3805 172.62C67.9538 172.06 68.2405 171.247 68.2405 170.18V168.34C67.8538 168.86 67.3271 169.3 66.6605 169.66C66.0071 170.007 65.2605 170.18 64.4205 170.18C63.4605 170.18 62.5805 169.94 61.7805 169.46C60.9938 168.967 60.3671 168.287 59.9005 167.42C59.4471 166.54 59.2205 165.547 59.2205 164.44C59.2205 163.333 59.4471 162.353 59.9005 161.5C60.3671 160.647 60.9938 159.987 61.7805 159.52C62.5805 159.04 63.4605 158.8 64.4205 158.8ZM68.2405 164.48C68.2405 163.72 68.0805 163.06 67.7605 162.5C67.4538 161.94 67.0471 161.513 66.5405 161.22C66.0338 160.927 65.4871 160.78 64.9005 160.78C64.3138 160.78 63.7671 160.927 63.2605 161.22C62.7538 161.5 62.3405 161.92 62.0205 162.48C61.7138 163.027 61.5605 163.68 61.5605 164.44C61.5605 165.2 61.7138 165.867 62.0205 166.44C62.3405 167.013 62.7538 167.453 63.2605 167.76C63.7805 168.053 64.3271 168.2 64.9005 168.2C65.4871 168.2 66.0338 168.053 66.5405 167.76C67.0471 167.467 67.4538 167.04 67.7605 166.48C68.0805 165.907 68.2405 165.24 68.2405 164.48ZM74.6952 157.52C74.2818 157.52 73.9352 157.38 73.6552 157.1C73.3752 156.82 73.2352 156.473 73.2352 156.06C73.2352 155.647 73.3752 155.3 73.6552 155.02C73.9352 154.74 74.2818 154.6 74.6952 154.6C75.0952 154.6 75.4352 154.74 75.7152 155.02C75.9952 155.3 76.1352 155.647 76.1352 156.06C76.1352 156.473 75.9952 156.82 75.7152 157.1C75.4352 157.38 75.0952 157.52 74.6952 157.52ZM75.8152 158.98V170H73.5352V158.98H75.8152ZM83.5886 170.18C82.5486 170.18 81.6086 169.947 80.7686 169.48C79.9286 169 79.2686 168.333 78.7886 167.48C78.3086 166.613 78.0686 165.613 78.0686 164.48C78.0686 163.36 78.3153 162.367 78.8086 161.5C79.3019 160.633 79.9753 159.967 80.8286 159.5C81.6819 159.033 82.6353 158.8 83.6886 158.8C84.7419 158.8 85.6953 159.033 86.5486 159.5C87.4019 159.967 88.0753 160.633 88.5686 161.5C89.0619 162.367 89.3086 163.36 89.3086 164.48C89.3086 165.6 89.0553 166.593 88.5486 167.46C88.0419 168.327 87.3486 169 86.4686 169.48C85.6019 169.947 84.6419 170.18 83.5886 170.18ZM83.5886 168.2C84.1753 168.2 84.7219 168.06 85.2286 167.78C85.7486 167.5 86.1686 167.08 86.4886 166.52C86.8086 165.96 86.9686 165.28 86.9686 164.48C86.9686 163.68 86.8153 163.007 86.5086 162.46C86.2019 161.9 85.7953 161.48 85.2886 161.2C84.7819 160.92 84.2353 160.78 83.6486 160.78C83.0619 160.78 82.5153 160.92 82.0086 161.2C81.5153 161.48 81.1219 161.9 80.8286 162.46C80.5353 163.007 80.3886 163.68 80.3886 164.48C80.3886 165.667 80.6886 166.587 81.2886 167.24C81.9019 167.88 82.6686 168.2 83.5886 168.2ZM97.1225 158.8C97.9892 158.8 98.7625 158.98 99.4425 159.34C100.136 159.7 100.676 160.233 101.063 160.94C101.449 161.647 101.643 162.5 101.643 163.5V170H99.3825V163.84C99.3825 162.853 99.1358 162.1 98.6425 161.58C98.1492 161.047 97.4758 160.78 96.6225 160.78C95.7692 160.78 95.0892 161.047 94.5825 161.58C94.0892 162.1 93.8425 162.853 93.8425 163.84V170H91.5625V158.98H93.8425V160.24C94.2158 159.787 94.6892 159.433 95.2625 159.18C95.8492 158.927 96.4692 158.8 97.1225 158.8ZM103.791 164.44C103.791 163.333 104.017 162.353 104.471 161.5C104.937 160.647 105.564 159.987 106.351 159.52C107.151 159.04 108.031 158.8 108.991 158.8C109.857 158.8 110.611 158.973 111.251 159.32C111.904 159.653 112.424 160.073 112.811 160.58V158.98H115.111V170H112.811V168.36C112.424 168.88 111.897 169.313 111.231 169.66C110.564 170.007 109.804 170.18 108.951 170.18C108.004 170.18 107.137 169.94 106.351 169.46C105.564 168.967 104.937 168.287 104.471 167.42C104.017 166.54 103.791 165.547 103.791 164.44ZM112.811 164.48C112.811 163.72 112.651 163.06 112.331 162.5C112.024 161.94 111.617 161.513 111.111 161.22C110.604 160.927 110.057 160.78 109.471 160.78C108.884 160.78 108.337 160.927 107.831 161.22C107.324 161.5 106.911 161.92 106.591 162.48C106.284 163.027 106.131 163.68 106.131 164.44C106.131 165.2 106.284 165.867 106.591 166.44C106.911 167.013 107.324 167.453 107.831 167.76C108.351 168.053 108.897 168.2 109.471 168.2C110.057 168.2 110.604 168.053 111.111 167.76C111.617 167.467 112.024 167.04 112.331 166.48C112.651 165.907 112.811 165.24 112.811 164.48ZM120.385 155.2V170H118.105V155.2H120.385ZM127.814 163.02C127.814 161.66 128.128 160.44 128.754 159.36C129.394 158.28 130.254 157.44 131.334 156.84C132.428 156.227 133.621 155.92 134.914 155.92C136.394 155.92 137.708 156.287 138.854 157.02C140.014 157.74 140.854 158.767 141.374 160.1H138.634C138.274 159.367 137.774 158.82 137.134 158.46C136.494 158.1 135.754 157.92 134.914 157.92C133.994 157.92 133.174 158.127 132.454 158.54C131.734 158.953 131.168 159.547 130.754 160.32C130.354 161.093 130.154 161.993 130.154 163.02C130.154 164.047 130.354 164.947 130.754 165.72C131.168 166.493 131.734 167.093 132.454 167.52C133.174 167.933 133.994 168.14 134.914 168.14C135.754 168.14 136.494 167.96 137.134 167.6C137.774 167.24 138.274 166.693 138.634 165.96H141.374C140.854 167.293 140.014 168.32 138.854 169.04C137.708 169.76 136.394 170.12 134.914 170.12C133.608 170.12 132.414 169.82 131.334 169.22C130.254 168.607 129.394 167.76 128.754 166.68C128.128 165.6 127.814 164.38 127.814 163.02ZM154.143 164.22C154.143 164.633 154.116 165.007 154.063 165.34H145.643C145.71 166.22 146.036 166.927 146.623 167.46C147.21 167.993 147.93 168.26 148.783 168.26C150.01 168.26 150.876 167.747 151.383 166.72H153.843C153.51 167.733 152.903 168.567 152.023 169.22C151.156 169.86 150.076 170.18 148.783 170.18C147.73 170.18 146.783 169.947 145.943 169.48C145.116 169 144.463 168.333 143.983 167.48C143.516 166.613 143.283 165.613 143.283 164.48C143.283 163.347 143.51 162.353 143.963 161.5C144.43 160.633 145.076 159.967 145.903 159.5C146.743 159.033 147.703 158.8 148.783 158.8C149.823 158.8 150.75 159.027 151.563 159.48C152.376 159.933 153.01 160.573 153.463 161.4C153.916 162.213 154.143 163.153 154.143 164.22ZM151.763 163.5C151.75 162.66 151.45 161.987 150.863 161.48C150.276 160.973 149.55 160.72 148.683 160.72C147.896 160.72 147.223 160.973 146.663 161.48C146.103 161.973 145.77 162.647 145.663 163.5H151.763ZM161.947 158.8C162.813 158.8 163.587 158.98 164.267 159.34C164.96 159.7 165.5 160.233 165.887 160.94C166.273 161.647 166.467 162.5 166.467 163.5V170H164.207V163.84C164.207 162.853 163.96 162.1 163.467 161.58C162.973 161.047 162.3 160.78 161.447 160.78C160.593 160.78 159.913 161.047 159.407 161.58C158.913 162.1 158.667 162.853 158.667 163.84V170H156.387V158.98H158.667V160.24C159.04 159.787 159.513 159.433 160.087 159.18C160.673 158.927 161.293 158.8 161.947 158.8ZM172.035 160.84V166.94C172.035 167.353 172.128 167.653 172.315 167.84C172.515 168.013 172.848 168.1 173.315 168.1H174.715V170H172.915C171.888 170 171.102 169.76 170.555 169.28C170.008 168.8 169.735 168.02 169.735 166.94V160.84H168.435V158.98H169.735V156.24H172.035V158.98H174.715V160.84H172.035ZM186.916 164.22C186.916 164.633 186.89 165.007 186.836 165.34H178.416C178.483 166.22 178.81 166.927 179.396 167.46C179.983 167.993 180.703 168.26 181.556 168.26C182.783 168.26 183.65 167.747 184.156 166.72H186.616C186.283 167.733 185.676 168.567 184.796 169.22C183.93 169.86 182.85 170.18 181.556 170.18C180.503 170.18 179.556 169.947 178.716 169.48C177.89 169 177.236 168.333 176.756 167.48C176.29 166.613 176.056 165.613 176.056 164.48C176.056 163.347 176.283 162.353 176.736 161.5C177.203 160.633 177.85 159.967 178.676 159.5C179.516 159.033 180.476 158.8 181.556 158.8C182.596 158.8 183.523 159.027 184.336 159.48C185.15 159.933 185.783 160.573 186.236 161.4C186.69 162.213 186.916 163.153 186.916 164.22ZM184.536 163.5C184.523 162.66 184.223 161.987 183.636 161.48C183.05 160.973 182.323 160.72 181.456 160.72C180.67 160.72 179.996 160.973 179.436 161.48C178.876 161.973 178.543 162.647 178.436 163.5H184.536ZM191.44 160.58C191.773 160.02 192.213 159.587 192.76 159.28C193.32 158.96 193.98 158.8 194.74 158.8V161.16H194.16C193.267 161.16 192.587 161.387 192.12 161.84C191.667 162.293 191.44 163.08 191.44 164.2V170H189.16V158.98H191.44V160.58Z" fill="white"/>
</svg>
