<svg width="28" height="24" viewBox="0 0 28 24" fill="none" xmlns="http://www.w3.org/2000/svg">
<path d="M24.2711 2.67443C23.8305 2.23381 23.1133 2.23381 22.6727 2.67912L21.6977 3.67287L23.8398 5.81506L24.8289 4.826C25.2695 4.38537 25.2695 3.67287 24.8289 3.23693L24.2711 2.67443ZM14.4602 11.0041C14.3102 11.1588 14.2023 11.351 14.1602 11.5619L13.6727 13.8916L15.993 13.4041C16.2086 13.3572 16.4008 13.2541 16.5555 13.0994L22.2508 7.40412L20.118 5.27131L14.4602 11.0041ZM21.0742 1.09943C22.3914 -0.231817 24.5383 -0.241192 25.8648 1.08537L26.4227 1.64318C27.7398 2.96037 27.7398 5.09787 26.4227 6.41506L18.1492 14.6932C17.6852 15.1572 17.0992 15.476 16.457 15.6119L12.4492 16.451C12.0789 16.5307 11.6898 16.4135 11.4227 16.1463C11.1555 15.8791 11.0383 15.4901 11.118 15.1197L11.9617 11.1026C12.093 10.4697 12.407 9.88381 12.8617 9.42443L21.0742 1.09943ZM0.589844 9.27912C0.589844 7.4135 2.09922 5.90412 3.96484 5.90412H9.96484C10.5883 5.90412 11.0898 6.40568 11.0898 7.02912C11.0898 7.65256 10.5883 8.15412 9.96484 8.15412H3.96484C3.34141 8.15412 2.83984 8.65568 2.83984 9.27912V20.5291C2.83984 21.1526 3.34141 21.6541 3.96484 21.6541H21.2148C21.8383 21.6541 22.3398 21.1526 22.3398 20.5291V14.5291C22.3398 13.9057 22.8414 13.4041 23.4648 13.4041C24.0883 13.4041 24.5898 13.9057 24.5898 14.5291V20.5291C24.5898 22.3947 23.0805 23.9041 21.2148 23.9041H3.96484C2.09922 23.9041 0.589844 22.3947 0.589844 20.5291V9.27912ZM5.83984 14.9041C5.83984 14.5063 5.99788 14.1248 6.27918 13.8435C6.56049 13.5622 6.94202 13.4041 7.33984 13.4041C7.73767 13.4041 8.1192 13.5622 8.4005 13.8435C8.68181 14.1248 8.83984 14.5063 8.83984 14.9041C8.83984 15.3019 8.68181 15.6835 8.4005 15.9648C8.1192 16.2461 7.73767 16.4041 7.33984 16.4041C6.94202 16.4041 6.56049 16.2461 6.27918 15.9648C5.99788 15.6835 5.83984 15.3019 5.83984 14.9041Z" fill="#0B61B0"/>
</svg>
