<svg width="20" height="21" viewBox="0 0 20 21" fill="none" xmlns="http://www.w3.org/2000/svg">
<path d="M11.9219 15.6281C11.2312 17.0312 10.4844 17.5 10 17.5C9.51562 17.5 8.76875 17.0312 8.07812 15.6281C7.48438 14.4219 7.075 12.775 7.00938 11H12.9906C12.925 12.775 12.5156 14.4219 11.9219 15.6281ZM12.9906 10H7.00938C7.075 8.225 7.48438 6.57812 8.07812 5.37188C8.76875 3.96875 9.51562 3.5 10 3.5C10.4844 3.5 11.2312 3.96875 11.9219 5.37188C12.5156 6.57812 12.925 8.225 12.9906 10ZM13.9906 11H16.9812C16.7781 13.8906 14.8188 16.2969 12.1625 17.1594C13.1938 15.7781 13.9062 13.4781 13.9906 11ZM16.9812 10H13.9906C13.9062 7.52187 13.1938 5.22188 12.1625 3.84063C14.8188 4.70312 16.7781 7.10938 16.9812 10ZM6.00625 10H3.01562C3.21875 7.10938 5.17812 4.70312 7.83437 3.84063C6.80312 5.22188 6.09062 7.52187 6.00625 10ZM3.01875 11H6.00938C6.09375 13.4781 6.80625 15.7781 7.8375 17.1594C5.18125 16.2969 3.22187 13.8906 3.01875 11ZM10 18.5C12.1217 18.5 14.1566 17.6571 15.6569 16.1569C17.1571 14.6566 18 12.6217 18 10.5C18 8.37827 17.1571 6.34344 15.6569 4.84315C14.1566 3.34285 12.1217 2.5 10 2.5C7.87827 2.5 5.84344 3.34285 4.34315 4.84315C2.84285 6.34344 2 8.37827 2 10.5C2 12.6217 2.84285 14.6566 4.34315 16.1569C5.84344 17.6571 7.87827 18.5 10 18.5Z" fill="#2F2F2F"/>
</svg>
