<svg width="30" height="30" viewBox="0 0 30 30" fill="none" xmlns="http://www.w3.org/2000/svg">
<path d="M19.4953 16.125H10.5469C10.6828 19.1484 11.3531 21.9328 12.3047 23.9719C12.8391 25.1203 13.4156 25.9312 13.95 26.4281C14.475 26.9203 14.8359 27 15.0234 27C15.2109 27 15.5719 26.9203 16.0969 26.4281C16.6312 25.9312 17.2078 25.1156 17.7422 23.9719C18.6937 21.9328 19.3641 19.1484 19.5 16.125H19.4953ZM10.5422 13.875H19.4906C19.3594 10.8516 18.6891 8.06719 17.7375 6.02812C17.2031 4.88437 16.6266 4.06875 16.0922 3.57187C15.5672 3.07969 15.2062 3 15.0187 3C14.8312 3 14.4703 3.07969 13.9453 3.57187C13.4109 4.06875 12.8344 4.88437 12.3 6.02812C11.3484 8.06719 10.6781 10.8516 10.5422 13.875ZM8.29219 13.875C8.45625 9.8625 9.49219 6.13594 11.0062 3.68906C6.68906 5.21719 3.51094 9.15 3.07031 13.875H8.29219ZM3.07031 16.125C3.51094 20.85 6.68906 24.7828 11.0062 26.3109C9.49219 23.8641 8.45625 20.1375 8.29219 16.125H3.07031ZM21.7453 16.125C21.5812 20.1375 20.5453 23.8641 19.0312 26.3109C23.3484 24.7781 26.5266 20.85 26.9672 16.125H21.7453ZM26.9672 13.875C26.5266 9.15 23.3484 5.21719 19.0312 3.68906C20.5453 6.13594 21.5812 9.8625 21.7453 13.875H26.9672Z" fill="#0B61B0"/>
</svg>
