<svg width="26" height="26" viewBox="0 0 26 26" fill="none" xmlns="http://www.w3.org/2000/svg">
<path d="M4.07143 3.17857C3.58036 3.17857 3.17857 3.58036 3.17857 4.07143V21.9286C3.17857 22.4196 3.58036 22.8214 4.07143 22.8214H21.9286C22.4196 22.8214 22.8214 22.4196 22.8214 21.9286V4.07143C22.8214 3.58036 22.4196 3.17857 21.9286 3.17857H4.07143ZM0.5 4.07143C0.5 2.10156 2.10156 0.5 4.07143 0.5H21.9286C23.8984 0.5 25.5 2.10156 25.5 4.07143V21.9286C25.5 23.8984 23.8984 25.5 21.9286 25.5H4.07143C2.10156 25.5 0.5 23.8984 0.5 21.9286V4.07143ZM7.64286 5.85714C8.11646 5.85714 8.57066 6.04528 8.90555 6.38017C9.24043 6.71505 9.42857 7.16926 9.42857 7.64286C9.42857 8.11646 9.24043 8.57066 8.90555 8.90555C8.57066 9.24043 8.11646 9.42857 7.64286 9.42857C7.16926 9.42857 6.71505 9.24043 6.38017 8.90555C6.04528 8.57066 5.85714 8.11646 5.85714 7.64286C5.85714 7.16926 6.04528 6.71505 6.38017 6.38017C6.71505 6.04528 7.16926 5.85714 7.64286 5.85714ZM15.2321 9.875C15.7065 9.875 16.1473 10.1261 16.3873 10.5335L20.8516 18.1228C21.0971 18.5357 21.0971 19.0491 20.8571 19.4676C20.6172 19.8862 20.1763 20.1429 19.6964 20.1429H6.30357C5.80692 20.1429 5.34375 19.8638 5.11495 19.423C4.88616 18.9821 4.91964 18.4464 5.20424 18.0391L8.32924 13.5748C8.58036 13.2176 8.98772 13.0056 9.42857 13.0056C9.86942 13.0056 10.2768 13.2176 10.5279 13.5748L11.4877 14.9475L14.0826 10.5391C14.3225 10.1317 14.7634 9.88058 15.2377 9.88058L15.2321 9.875Z" fill="#0B61B0"/>
</svg>
