<svg width="24" height="25" viewBox="0 0 24 25" fill="none" xmlns="http://www.w3.org/2000/svg">
<g clip-path="url(#clip0_1714_2293)">
<path d="M7.0301 0.583925C5.7533 0.644165 4.88138 0.847925 4.11914 1.14745C3.33026 1.45489 2.66162 1.86745 1.99634 2.53513C1.33106 3.20281 0.921379 3.87193 0.616099 4.66201C0.320659 5.42593 0.120499 6.29857 0.0640995 7.57609C0.00769946 8.85361 -0.00478054 9.26425 0.00145946 12.523C0.00769946 15.7817 0.0220995 16.1902 0.0840195 17.4703C0.144979 18.7469 0.348019 19.6186 0.647539 20.381C0.955459 21.1699 1.36754 21.8383 2.03546 22.5038C2.70338 23.1694 3.37202 23.5781 4.16402 23.8838C4.92722 24.1788 5.8001 24.3799 7.07738 24.4358C8.35466 24.4918 8.76578 24.5047 12.0235 24.4985C15.2813 24.4922 15.6915 24.4778 16.9714 24.4171C18.2513 24.3564 19.1184 24.1519 19.8811 23.8538C20.67 23.5452 21.3389 23.1338 22.0039 22.4657C22.669 21.7975 23.0784 21.1279 23.3835 20.3374C23.6791 19.5742 23.88 18.7013 23.9355 17.425C23.9914 16.1441 24.0046 15.7351 23.9983 12.4769C23.9921 9.21865 23.9775 8.81017 23.9167 7.53049C23.856 6.25081 23.6527 5.38177 23.3535 4.61881C23.0451 3.82993 22.6335 3.16201 21.9658 2.49601C21.2981 1.83001 20.628 1.42081 19.8377 1.11649C19.074 0.821045 18.2016 0.619685 16.9243 0.564485C15.6471 0.509285 15.2359 0.495125 11.977 0.501365C8.71802 0.507605 8.31002 0.521525 7.0301 0.583925ZM7.17026 22.277C6.00026 22.2262 5.36498 22.0318 4.94162 21.869C4.38098 21.653 3.98162 21.3919 3.5597 20.9741C3.13778 20.5562 2.87858 20.1554 2.6597 19.596C2.4953 19.1726 2.2973 18.5381 2.24258 17.3681C2.18306 16.1035 2.17058 15.7238 2.16362 12.5201C2.15666 9.31633 2.1689 8.93713 2.22434 7.67209C2.27426 6.50305 2.46986 5.86705 2.63234 5.44393C2.84834 4.88257 3.1085 4.48393 3.5273 4.06225C3.9461 3.64057 4.3457 3.38089 4.90562 3.16201C5.3285 2.99689 5.96306 2.80057 7.13258 2.74489C8.3981 2.68489 8.7773 2.67289 11.9806 2.66593C15.1839 2.65897 15.564 2.67097 16.83 2.72664C17.9991 2.77753 18.6353 2.9712 19.0579 3.13464C19.6188 3.35065 20.0179 3.61009 20.4396 4.02961C20.8613 4.44913 21.1212 4.84729 21.3401 5.40841C21.5055 5.83009 21.7018 6.46441 21.757 7.63465C21.8172 8.90017 21.8309 9.2796 21.8367 12.4826C21.8424 15.6857 21.8311 16.0661 21.7757 17.3306C21.7246 18.5006 21.5307 19.1362 21.3677 19.56C21.1517 20.1204 20.8913 20.52 20.4723 20.9414C20.0532 21.3629 19.6541 21.6226 19.0939 21.8414C18.6715 22.0063 18.0363 22.2031 16.8677 22.2588C15.6022 22.3183 15.223 22.3308 12.0185 22.3378C8.81402 22.3447 8.43602 22.3318 7.1705 22.277M16.9529 6.08641C16.9534 6.37123 17.0383 6.64952 17.1969 6.88607C17.3556 7.12262 17.5808 7.30681 17.8442 7.41535C18.1075 7.52389 18.3971 7.55189 18.6764 7.49583C18.9556 7.43976 19.212 7.30214 19.413 7.10037C19.614 6.8986 19.7507 6.64174 19.8058 6.36228C19.8608 6.08283 19.8317 5.79333 19.7222 5.53039C19.6127 5.26746 19.4277 5.0429 19.1906 4.88512C18.9534 4.72735 18.6748 4.64344 18.39 4.64401C18.0082 4.64477 17.6423 4.79715 17.3728 5.06764C17.1033 5.33813 16.9523 5.70458 16.9529 6.08641ZM5.8385 12.5119C5.84522 15.9151 8.60906 18.6677 12.0115 18.6612C15.414 18.6547 18.1685 15.8911 18.162 12.4879C18.1555 9.08473 15.391 6.33145 11.988 6.33817C8.58506 6.34489 5.83202 9.10921 5.8385 12.5119ZM7.99994 12.5076C7.99837 11.7165 8.23144 10.9426 8.66968 10.284C9.10791 9.62527 9.73162 9.11134 10.4619 8.80714C11.1923 8.50294 11.9964 8.42213 12.7726 8.57494C13.5489 8.72774 14.2624 9.1073 14.8229 9.66561C15.3834 10.2239 15.7658 10.9359 15.9217 11.7115C16.0776 12.4872 15.9999 13.2916 15.6986 14.0231C15.3973 14.7547 14.8859 15.3804 14.2289 15.8212C13.572 16.2621 12.7991 16.4982 12.0079 16.4998C11.4826 16.5009 10.9622 16.3985 10.4765 16.1984C9.99076 15.9984 9.54918 15.7046 9.17699 15.3339C8.8048 14.9632 8.50929 14.5228 8.30733 14.0378C8.10537 13.5529 8.00091 13.0329 7.99994 12.5076Z" fill="white"/>
</g>
<defs>
<clipPath id="clip0_1714_2293">
<rect width="24" height="24" fill="white" transform="translate(0 0.5)"/>
</clipPath>
</defs>
</svg>
