<svg width="24" height="24" viewBox="0 0 24 24" fill="none" xmlns="http://www.w3.org/2000/svg">
<path d="M13.5 1.125C13.5 1.74844 14.0016 2.25 14.625 2.25H20.1609L9.33281 13.0781C8.89219 13.5188 8.89219 14.2312 9.33281 14.6672C9.77344 15.1031 10.4859 15.1078 10.9219 14.6672L21.75 3.83906V9.375C21.75 9.99844 22.2516 10.5 22.875 10.5C23.4984 10.5 24 9.99844 24 9.375V1.125C24 0.501562 23.4984 0 22.875 0L14.625 0C14.0016 0 13.5 0.501562 13.5 1.125ZM3.75 4.5C1.67812 4.5 0 6.17812 0 8.25V20.25C0 22.3219 1.67812 24 3.75 24H15.75C17.8219 24 19.5 22.3219 19.5 20.25V16.125C19.5 15.5016 18.9984 15 18.375 15C17.7516 15 17.25 15.5016 17.25 16.125V20.25C17.25 21.0797 16.5797 21.75 15.75 21.75H3.75C2.92031 21.75 2.25 21.0797 2.25 20.25V8.25C2.25 7.42031 2.92031 6.75 3.75 6.75H7.875C8.49844 6.75 9 6.24844 9 5.625C9 5.00156 8.49844 4.5 7.875 4.5H3.75Z" fill="#0B61B0"/>
</svg>
