<svg width="24" height="25" viewBox="0 0 24 25" fill="none" xmlns="http://www.w3.org/2000/svg">
<g clip-path="url(#clip0_1714_2296)">
<path d="M5.586 8.22095H0.767956C0.554124 8.22095 0.380859 8.39429 0.380859 8.60804V24.0863C0.380859 24.3002 0.554124 24.4734 0.767956 24.4734H5.586C5.79983 24.4734 5.97309 24.3002 5.97309 24.0863V8.60804C5.97309 8.39429 5.79983 8.22095 5.586 8.22095Z" fill="white"/>
<path d="M3.1793 0.526367C1.42622 0.526367 0 1.95104 0 3.70219C0 5.45411 1.42622 6.87932 3.1793 6.87932C4.93099 6.87932 6.35605 5.45403 6.35605 3.70219C6.35613 1.95104 4.93099 0.526367 3.1793 0.526367Z" fill="white"/>
<path d="M17.8422 7.83618C15.9071 7.83618 14.4767 8.66805 13.609 9.61326V8.60798C13.609 8.39422 13.4357 8.22088 13.2219 8.22088H8.6078C8.39397 8.22088 8.2207 8.39422 8.2207 8.60798V24.0863C8.2207 24.3001 8.39397 24.4734 8.6078 24.4734H13.4153C13.6291 24.4734 13.8024 24.3001 13.8024 24.0863V16.4281C13.8024 13.8475 14.5034 12.8421 16.3023 12.8421C18.2615 12.8421 18.4171 14.4538 18.4171 16.5609V24.0863C18.4171 24.3002 18.5904 24.4734 18.8042 24.4734H23.6135C23.8274 24.4734 24.0006 24.3002 24.0006 24.0863V15.5962C24.0006 11.7589 23.2689 7.83618 17.8422 7.83618Z" fill="white"/>
</g>
<defs>
<clipPath id="clip0_1714_2296">
<rect width="24" height="24" fill="white" transform="translate(0 0.5)"/>
</clipPath>
</defs>
</svg>
