<svg width="30" height="30" viewBox="0 0 30 30" fill="none" xmlns="http://www.w3.org/2000/svg">
<path d="M5.9998 11.8406C5.9998 6.95625 10.0311 3 14.9998 3C19.9686 3 23.9998 6.95625 23.9998 11.8406C23.9998 17.4328 18.3654 24.1359 16.0123 26.6906C15.4592 27.2906 14.5357 27.2906 13.9826 26.6906C11.6295 24.1359 5.99512 17.4328 5.99512 11.8406H5.9998ZM14.9998 15C15.7955 15 16.5585 14.6839 17.1211 14.1213C17.6837 13.5587 17.9998 12.7956 17.9998 12C17.9998 11.2044 17.6837 10.4413 17.1211 9.87868C16.5585 9.31607 15.7955 9 14.9998 9C14.2042 9 13.4411 9.31607 12.8785 9.87868C12.3159 10.4413 11.9998 11.2044 11.9998 12C11.9998 12.7956 12.3159 13.5587 12.8785 14.1213C13.4411 14.6839 14.2042 15 14.9998 15Z" fill="#0B61B0"/>
</svg>
