<svg width="287" height="92" viewBox="0 0 287 92" fill="none" xmlns="http://www.w3.org/2000/svg">
<path d="M113.42 15.702C114.054 15.5942 114.841 15.5999 115.477 15.6924C116.089 15.7815 116.778 16.0011 117.151 16.5293C117.358 16.821 117.455 17.1699 117.379 17.5238C117.091 18.8785 115.076 19.0235 114 19.44C108.805 21.4506 104.864 25.5691 100.305 28.6098C99.1427 29.3851 94.8508 31.9346 93.6091 32.0565C91.2155 32.2912 89.6593 26.6895 86.5079 26.1066C82.2468 25.3184 75.7687 34.7552 73.1191 37.7442C71.9173 39.0999 70.5963 40.395 69.0829 41.4046C68.1064 42.0559 65.2899 43.7481 64.1183 43.4644C62.8955 43.1684 63.0139 40.7488 62.4028 39.8044C62.2147 39.5138 61.9276 39.1683 61.5662 39.1091C60.9051 39.0009 60.2918 39.5099 59.813 39.9032C57.9413 41.4411 55.9674 43.601 54.2304 45.327L43.2912 56.1367C40.6342 58.7169 37.9083 61.4544 34.9218 63.66C31.8657 65.9171 31.5312 62.4794 29.8318 62.295C29.4187 62.2501 29.0313 62.4456 28.7135 62.6902C27.5738 63.5681 26.5683 64.7727 25.558 65.8055C22.8901 68.5329 20.294 71.4279 17.3079 73.812C16.279 74.5973 14.8874 75.9291 13.5891 76.1855C12.9288 76.3159 12.102 76.2725 11.532 75.8787C11.2957 75.7155 11.1257 75.475 11.0851 75.1872C11.0112 74.6621 11.326 74.1216 11.6412 73.7274C14.174 70.56 17.5463 68.067 20.3932 65.1893C21.8957 63.6706 23.0559 61.8078 24.6542 60.4025C25.8304 59.3684 27.2007 58.2939 28.6989 57.7723C32.3997 56.4841 33.0143 59.6286 36.5565 56.874C40.0414 54.1637 42.8057 50.7677 45.7077 47.4777C49.2948 43.411 53.9807 38.6161 58.6396 35.7625C59.7064 35.109 60.8973 34.3601 62.1692 34.2227C64.1936 34.0041 64.3529 35.0483 65.6452 36.0549C65.9643 36.3036 66.315 36.3859 66.7006 36.2287C67.7195 35.8132 69.0143 34.2298 69.8134 33.4316C74.5456 28.7048 79.841 23.0456 86.8491 22.1393C89.0522 21.8546 89.7606 21.9069 91.3914 23.4758C91.9969 24.0581 92.6064 24.6395 93.1844 25.2491C93.5872 25.6736 93.9682 26.153 94.4358 26.5065C94.9141 26.8684 95.4928 27.0643 96.074 26.8301C97.1771 26.3858 98.243 25.2637 99.1565 24.5146L103.546 20.9378C106.562 18.5051 109.46 16.2466 113.42 15.702Z" fill="#107FBF"/>
<path d="M125.414 25.7087C125.537 25.7135 125.66 25.7194 125.782 25.7372C126.111 25.7852 126.46 25.9775 126.655 26.2485C127.381 27.2576 125.88 29.546 125.678 30.6934C125.261 33.0621 127.495 32.1428 128.22 33.1785C128.268 33.3331 128.283 33.4526 128.243 33.6118C128.136 34.0418 127.767 34.5263 127.377 34.7409C126.654 35.138 124.927 35.2307 124.144 34.9984C122.785 34.5954 123.788 33.5194 123.311 32.7463C123.159 32.4996 122.868 32.3908 122.6 32.3307C122.308 32.3743 122.136 32.4452 121.918 32.6506C121.356 33.1788 120.956 33.9091 120.46 34.5014C119.399 35.768 118.107 36.9058 116.8 37.9132C113.772 40.2479 110.32 41.9989 107.03 43.9296C105.272 44.961 103.593 46.1263 101.864 47.2051C98.5666 49.2629 95.2507 51.2555 92.1633 53.6258C91.2677 54.3127 90.3177 55.4877 89.2948 55.926C88.9876 56.0577 88.6269 56.0996 88.3132 55.9619C87.9858 55.8182 87.6486 55.4726 87.5189 55.1396C87.4224 54.8926 87.4378 54.6652 87.5481 54.4257C87.8318 53.8112 88.9155 52.9067 89.405 52.3969C93.829 47.7861 99.485 44.5739 105.109 41.6487C109.066 39.5903 113.084 37.607 116.574 34.7944C118.084 33.5687 119.47 32.1993 120.713 30.7055C122.231 28.9095 122.992 26.5133 125.414 25.7087Z" fill="#8088C0"/>
<path d="M141.166 10.8441C141.346 10.8274 141.527 10.8114 141.708 10.8113C144.361 10.81 144.58 14.5648 146.069 16.0178C146.332 16.2739 146.707 16.5041 147.083 16.5283C148.621 16.6275 151.533 14.0965 153.176 14.1217C153.432 14.1257 153.694 14.2149 153.872 14.4049C154.027 14.5706 154.113 14.7168 154.093 14.9559C154.049 15.4796 153.699 16.0527 153.467 16.5165C152.748 17.9548 150.679 21.3305 150.536 22.6956C150.351 24.4582 155.114 28.3487 155.011 30.3382C154.997 30.5998 154.9 30.8367 154.691 31.004C154.498 31.1592 154.241 31.2311 153.998 31.2604C153.449 31.3266 152.864 31.2481 152.306 31.2774C150.823 31.3551 149.286 31.6099 147.806 31.4793C146.935 31.4022 145.672 31.1776 145.101 30.469C144.808 30.1072 144.824 29.7986 144.873 29.3595C146.242 27.6279 149.171 29.5669 150.658 28.8006C150.803 28.7276 150.907 28.5935 150.942 28.4354C151.209 27.2378 148.037 24.4944 147.396 23.4057C146.689 22.2021 148.123 20.9719 148.66 20.0008C148.883 19.5978 148.994 19.1248 149.118 18.6838C147.913 18.892 146.168 19.7945 144.972 19.3085C143.28 18.6206 142.288 14.7998 141.628 13.1771C140.564 14.4781 140.229 15.9864 139.926 17.5932C139.843 18.0287 139.783 18.6011 139.572 18.9892C139.452 19.2085 139.241 19.3302 139.01 19.4065C138.803 19.4751 138.61 19.5048 138.41 19.3908C138.134 19.2337 137.996 18.8755 137.919 18.5853C137.404 16.6386 138.016 14.2502 139.003 12.547C139.538 11.6252 140.135 11.1186 141.166 10.8441Z" fill="#107FBF"/>
<path d="M74.6411 63.1153C74.9848 63.0907 75.3045 63.1172 75.608 63.2923C75.8326 63.4218 75.9797 63.6203 76.0326 63.8736C76.1848 64.6024 75.6694 65.3824 75.2794 65.955C72.4276 70.1412 68.5576 73.4266 64.2295 76.0183C63.4365 76.4931 62.4343 77.2157 61.5195 77.3769C61.3076 77.4142 61.1109 77.4137 60.9335 77.2764C60.7683 77.1485 60.6703 76.9552 60.6451 76.7498C60.6227 76.5676 60.6491 76.3768 60.7559 76.2244C61.7703 74.7767 64.4097 73.1318 65.8082 71.4026L65.9126 71.211L65.8509 71.1247C64.4986 70.94 60.7922 73.2488 59.3038 73.7949C58.385 74.132 57.4789 74.3062 56.502 74.3396L56.5328 74.2879C57.6863 72.3753 59.5191 70.9913 61.3019 69.698C65.3559 66.7571 69.7424 64.318 74.6411 63.1153Z" fill="#8088C0"/>
<path d="M77.9376 45.3867C78.0198 45.4004 78.1023 45.4217 78.1826 45.4442C78.4084 45.5076 78.6606 45.6318 78.7665 45.8523C79.1329 46.6151 77.1605 48.3646 76.6701 48.9872C76.2656 49.5006 75.8987 50.0586 75.6597 50.669C74.9643 52.4444 75.5928 53.8429 76.8411 55.1453C77.2848 55.6083 77.8097 56.0825 78.0677 56.6798C78.2005 56.9875 78.2725 57.2564 78.1385 57.5799C77.3962 59.3732 70.0099 61.659 68.0133 62.3989C66.8374 62.8424 65.6737 63.3173 64.5233 63.823C63.7239 64.1723 62.9185 64.5078 62.1074 64.8293C63.0315 63.1764 64.2554 61.7759 65.7172 60.5721C66.8405 59.6471 68.0981 58.7493 69.3602 58.0209C70.0691 57.6118 70.8613 57.2987 71.5222 56.8157C71.8475 56.5779 72.145 56.2946 72.3197 55.9265C72.9166 54.6691 71.6557 52.9487 72.437 50.9539C73.1323 49.1782 76.2045 46.1521 77.9376 45.3867Z" fill="#8088C0"/>
<path d="M94.4424 55.5891C95.0682 55.5819 95.5853 55.8244 96.0635 56.225C96.4291 56.5317 96.7581 56.9653 96.7922 57.4565C96.8595 58.4029 96.164 59.6495 95.7782 60.5068C93.2136 66.0788 89.8774 71.2645 85.8668 75.9124C85.3594 76.3838 84.9282 76.5661 84.2773 76.7546C84.5748 75.5207 84.9258 74.3002 85.3294 73.0966C86.5112 69.5407 88.1736 66.3126 89.8053 62.9555C90.8112 60.8846 91.7238 58.6499 93.0993 56.7934C93.49 56.2665 93.8459 55.8882 94.4424 55.5891Z" fill="#8088C0"/>
<path d="M118.976 40.5623C119.081 40.5527 119.191 40.5442 119.297 40.5589C119.483 40.5845 119.739 40.7271 119.846 40.8846C119.936 41.0193 119.906 41.089 119.885 41.2403C119.122 42.4562 114.366 45.8161 112.993 46.7517C109.581 49.0776 105.999 51.1334 102.438 53.2187C101.215 53.9343 99.9451 54.9047 98.6296 55.4146C98.2737 55.5525 98.0047 55.549 97.6342 55.4798C97.1965 55.2692 96.57 54.9673 96.3836 54.4851C96.3082 54.2898 96.3552 54.0868 96.4387 53.9026C97.5305 51.4892 110.021 44.6458 112.872 43.2275C114.867 42.2347 116.905 41.384 118.976 40.5623Z" fill="#8088C0"/>
<path d="M137.616 19.8954C137.788 19.8737 137.963 19.8691 138.137 19.8817C138.416 19.9026 138.638 20.0427 138.81 20.2564C138.946 20.4263 139.038 20.6272 139.005 20.8485C138.879 21.6932 134.859 23.11 134.028 23.7523C133.825 23.9088 133.653 24.0736 133.616 24.3383C133.933 25.1541 136.961 25.1838 138.162 26.0866C139.525 27.1112 139.076 29.7946 139.317 31.3038C139.368 31.6281 139.41 31.9154 139.685 32.116C140.867 31.9234 140.954 29.6137 142.19 29.2318C142.36 29.1792 142.548 29.1894 142.705 29.2758C142.865 29.3639 142.963 29.512 143.011 29.6853C143.301 30.7451 141.171 34.1744 140.558 35.2123C140.065 36.0187 139.414 37.2903 138.658 37.8509C138.462 37.9963 138.29 38.0654 138.041 38.0263C137.763 37.883 137.657 37.6175 137.59 37.3282C137.445 36.7123 137.48 36.0449 137.479 35.4166C137.479 33.6106 137.802 30.2063 137.25 28.634C137.133 28.301 136.961 27.9781 136.667 27.7683C135.613 27.0139 132.666 27.0668 131.302 26.9443C130.856 26.9041 130.349 26.8987 129.94 26.6996C129.696 26.5809 129.515 26.3917 129.437 26.128C129.261 25.5348 129.513 24.7336 129.801 24.2129C130.99 22.0589 135.33 20.5316 137.616 19.8954Z" fill="#107FBF"/>
<path d="M83.7134 42.0387C84.8312 41.845 86.3177 42.0007 87.3382 42.4937C88.387 43.0095 89.1862 43.92 89.5591 45.0242C89.9773 46.3012 89.6426 47.6579 89.0347 48.814C88.5346 49.7638 86.8648 51.8242 85.8127 52.0884C85.585 52.1458 85.2745 52.1321 85.0784 51.9921C84.943 51.8951 84.8668 51.7799 84.8458 51.6176C84.8028 51.3032 85.1716 50.9273 85.3548 50.6888C86.0227 49.7432 86.7619 48.8164 87.061 47.6762C87.2336 47.0174 87.2393 46.2713 86.8713 45.674C86.1961 44.576 84.0239 44.4557 82.868 44.7172C82.2277 44.862 81.3555 45.4752 80.6911 45.2828C80.2735 45.1619 79.9865 44.7423 79.7731 44.3933C79.7586 44.1516 79.7832 44.016 79.9391 43.8214C80.8392 42.6976 82.3428 42.2265 83.7134 42.0387Z" fill="#8088C0"/>
<path d="M137.48 50.1L132.26 64H129.62L124.38 50.1H126.82L130.94 61.66L135.08 50.1H137.48ZM138.627 58.44C138.627 57.3333 138.853 56.3533 139.307 55.5C139.773 54.6467 140.4 53.9867 141.187 53.52C141.987 53.04 142.867 52.8 143.827 52.8C144.693 52.8 145.447 52.9733 146.087 53.32C146.74 53.6533 147.26 54.0733 147.647 54.58V52.98H149.947V64H147.647V62.36C147.26 62.88 146.733 63.3133 146.067 63.66C145.4 64.0067 144.64 64.18 143.787 64.18C142.84 64.18 141.973 63.94 141.187 63.46C140.4 62.9667 139.773 62.2867 139.307 61.42C138.853 60.54 138.627 59.5467 138.627 58.44ZM147.647 58.48C147.647 57.72 147.487 57.06 147.167 56.5C146.86 55.94 146.453 55.5133 145.947 55.22C145.44 54.9267 144.893 54.78 144.307 54.78C143.72 54.78 143.173 54.9267 142.667 55.22C142.16 55.5 141.747 55.92 141.427 56.48C141.12 57.0267 140.967 57.68 140.967 58.44C140.967 59.2 141.12 59.8667 141.427 60.44C141.747 61.0133 142.16 61.4533 142.667 61.76C143.187 62.0533 143.733 62.2 144.307 62.2C144.893 62.2 145.44 62.0533 145.947 61.76C146.453 61.4667 146.86 61.04 147.167 60.48C147.487 59.9067 147.647 59.24 147.647 58.48ZM155.221 49.2V64H152.941V49.2H155.221ZM160.495 49.2V64H158.215V49.2H160.495ZM173.588 58.22C173.588 58.6333 173.562 59.0067 173.508 59.34H165.088C165.155 60.22 165.482 60.9267 166.068 61.46C166.655 61.9933 167.375 62.26 168.228 62.26C169.455 62.26 170.322 61.7467 170.828 60.72H173.288C172.955 61.7333 172.348 62.5667 171.468 63.22C170.602 63.86 169.522 64.18 168.228 64.18C167.175 64.18 166.228 63.9467 165.388 63.48C164.562 63 163.908 62.3333 163.428 61.48C162.962 60.6133 162.728 59.6133 162.728 58.48C162.728 57.3467 162.955 56.3533 163.408 55.5C163.875 54.6333 164.522 53.9667 165.348 53.5C166.188 53.0333 167.148 52.8 168.228 52.8C169.268 52.8 170.195 53.0267 171.008 53.48C171.822 53.9333 172.455 54.5733 172.908 55.4C173.362 56.2133 173.588 57.1533 173.588 58.22ZM171.208 57.5C171.195 56.66 170.895 55.9867 170.308 55.48C169.722 54.9733 168.995 54.72 168.128 54.72C167.342 54.72 166.668 54.9733 166.108 55.48C165.548 55.9733 165.215 56.6467 165.108 57.5H171.208ZM185.752 52.98L178.992 69.18H176.632L178.872 63.82L174.532 52.98H177.072L180.172 61.38L183.392 52.98H185.752ZM207.308 50.1V64H205.028V54.48L200.788 64H199.208L194.948 54.48V64H192.668V50.1H195.128L200.008 61L204.868 50.1H207.308ZM215.085 64.18C214.045 64.18 213.105 63.9467 212.265 63.48C211.425 63 210.765 62.3333 210.285 61.48C209.805 60.6133 209.565 59.6133 209.565 58.48C209.565 57.36 209.811 56.3667 210.305 55.5C210.798 54.6333 211.471 53.9667 212.325 53.5C213.178 53.0333 214.131 52.8 215.185 52.8C216.238 52.8 217.191 53.0333 218.045 53.5C218.898 53.9667 219.571 54.6333 220.065 55.5C220.558 56.3667 220.805 57.36 220.805 58.48C220.805 59.6 220.551 60.5933 220.045 61.46C219.538 62.3267 218.845 63 217.965 63.48C217.098 63.9467 216.138 64.18 215.085 64.18ZM215.085 62.2C215.671 62.2 216.218 62.06 216.725 61.78C217.245 61.5 217.665 61.08 217.985 60.52C218.305 59.96 218.465 59.28 218.465 58.48C218.465 57.68 218.311 57.0067 218.005 56.46C217.698 55.9 217.291 55.48 216.785 55.2C216.278 54.92 215.731 54.78 215.145 54.78C214.558 54.78 214.011 54.92 213.505 55.2C213.011 55.48 212.618 55.9 212.325 56.46C212.031 57.0067 211.885 57.68 211.885 58.48C211.885 59.6667 212.185 60.5867 212.785 61.24C213.398 61.88 214.165 62.2 215.085 62.2ZM233.039 52.98V64H230.759V62.7C230.399 63.1533 229.925 63.5133 229.339 63.78C228.765 64.0333 228.152 64.16 227.499 64.16C226.632 64.16 225.852 63.98 225.159 63.62C224.479 63.26 223.939 62.7267 223.539 62.02C223.152 61.3133 222.959 60.46 222.959 59.46V52.98H225.219V59.12C225.219 60.1067 225.465 60.8667 225.959 61.4C226.452 61.92 227.125 62.18 227.979 62.18C228.832 62.18 229.505 61.92 229.999 61.4C230.505 60.8667 230.759 60.1067 230.759 59.12V52.98H233.039ZM241.607 52.8C242.474 52.8 243.247 52.98 243.927 53.34C244.62 53.7 245.16 54.2333 245.547 54.94C245.934 55.6467 246.127 56.5 246.127 57.5V64H243.867V57.84C243.867 56.8533 243.62 56.1 243.127 55.58C242.634 55.0467 241.96 54.78 241.107 54.78C240.254 54.78 239.574 55.0467 239.067 55.58C238.574 56.1 238.327 56.8533 238.327 57.84V64H236.047V52.98H238.327V54.24C238.7 53.7867 239.174 53.4333 239.747 53.18C240.334 52.9267 240.954 52.8 241.607 52.8ZM251.695 54.84V60.94C251.695 61.3533 251.788 61.6533 251.975 61.84C252.175 62.0133 252.508 62.1 252.975 62.1H254.375V64H252.575C251.548 64 250.762 63.76 250.215 63.28C249.668 62.8 249.395 62.02 249.395 60.94V54.84H248.095V52.98H249.395V50.24H251.695V52.98H254.375V54.84H251.695ZM255.717 58.44C255.717 57.3333 255.943 56.3533 256.397 55.5C256.863 54.6467 257.49 53.9867 258.277 53.52C259.077 53.04 259.957 52.8 260.917 52.8C261.783 52.8 262.537 52.9733 263.177 53.32C263.83 53.6533 264.35 54.0733 264.737 54.58V52.98H267.037V64H264.737V62.36C264.35 62.88 263.823 63.3133 263.157 63.66C262.49 64.0067 261.73 64.18 260.877 64.18C259.93 64.18 259.063 63.94 258.277 63.46C257.49 62.9667 256.863 62.2867 256.397 61.42C255.943 60.54 255.717 59.5467 255.717 58.44ZM264.737 58.48C264.737 57.72 264.577 57.06 264.257 56.5C263.95 55.94 263.543 55.5133 263.037 55.22C262.53 54.9267 261.983 54.78 261.397 54.78C260.81 54.78 260.263 54.9267 259.757 55.22C259.25 55.5 258.837 55.92 258.517 56.48C258.21 57.0267 258.057 57.68 258.057 58.44C258.057 59.2 258.21 59.8667 258.517 60.44C258.837 61.0133 259.25 61.4533 259.757 61.76C260.277 62.0533 260.823 62.2 261.397 62.2C261.983 62.2 262.53 62.0533 263.037 61.76C263.543 61.4667 263.95 61.04 264.257 60.48C264.577 59.9067 264.737 59.24 264.737 58.48ZM271.191 51.52C270.778 51.52 270.431 51.38 270.151 51.1C269.871 50.82 269.731 50.4733 269.731 50.06C269.731 49.6467 269.871 49.3 270.151 49.02C270.431 48.74 270.778 48.6 271.191 48.6C271.591 48.6 271.931 48.74 272.211 49.02C272.491 49.3 272.631 49.6467 272.631 50.06C272.631 50.4733 272.491 50.82 272.211 51.1C271.931 51.38 271.591 51.52 271.191 51.52ZM272.311 52.98V64H270.031V52.98H272.311ZM280.865 52.8C281.731 52.8 282.505 52.98 283.185 53.34C283.878 53.7 284.418 54.2333 284.805 54.94C285.191 55.6467 285.385 56.5 285.385 57.5V64H283.125V57.84C283.125 56.8533 282.878 56.1 282.385 55.58C281.891 55.0467 281.218 54.78 280.365 54.78C279.511 54.78 278.831 55.0467 278.325 55.58C277.831 56.1 277.585 56.8533 277.585 57.84V64H275.305V52.98H277.585V54.24C277.958 53.7867 278.431 53.4333 279.005 53.18C279.591 52.9267 280.211 52.8 280.865 52.8ZM132.72 86L129.52 80.44H127.78V86H125.5V72.1H130.3C131.367 72.1 132.267 72.2867 133 72.66C133.747 73.0333 134.3 73.5333 134.66 74.16C135.033 74.7867 135.22 75.4867 135.22 76.26C135.22 77.1667 134.953 77.9933 134.42 78.74C133.9 79.4733 133.093 79.9733 132 80.24L135.44 86H132.72ZM127.78 78.62H130.3C131.153 78.62 131.793 78.4067 132.22 77.98C132.66 77.5533 132.88 76.98 132.88 76.26C132.88 75.54 132.667 74.98 132.24 74.58C131.813 74.1667 131.167 73.96 130.3 73.96H127.78V78.62ZM148.237 80.22C148.237 80.6333 148.21 81.0067 148.157 81.34H139.737C139.803 82.22 140.13 82.9267 140.717 83.46C141.303 83.9933 142.023 84.26 142.877 84.26C144.103 84.26 144.97 83.7467 145.477 82.72H147.937C147.603 83.7333 146.997 84.5667 146.117 85.22C145.25 85.86 144.17 86.18 142.877 86.18C141.823 86.18 140.877 85.9467 140.037 85.48C139.21 85 138.557 84.3333 138.077 83.48C137.61 82.6133 137.377 81.6133 137.377 80.48C137.377 79.3467 137.603 78.3533 138.057 77.5C138.523 76.6333 139.17 75.9667 139.997 75.5C140.837 75.0333 141.797 74.8 142.877 74.8C143.917 74.8 144.843 75.0267 145.657 75.48C146.47 75.9333 147.103 76.5733 147.557 77.4C148.01 78.2133 148.237 79.1533 148.237 80.22ZM145.857 79.5C145.843 78.66 145.543 77.9867 144.957 77.48C144.37 76.9733 143.643 76.72 142.777 76.72C141.99 76.72 141.317 76.9733 140.757 77.48C140.197 77.9733 139.863 78.6467 139.757 79.5H145.857ZM154.92 74.8C155.774 74.8 156.527 74.9733 157.18 75.32C157.847 75.6533 158.367 76.0733 158.74 76.58V74.98H161.04V86.18C161.04 87.1933 160.827 88.0933 160.4 88.88C159.974 89.68 159.354 90.3067 158.54 90.76C157.74 91.2133 156.78 91.44 155.66 91.44C154.167 91.44 152.927 91.0867 151.94 90.38C150.954 89.6867 150.394 88.74 150.26 87.54H152.52C152.694 88.1133 153.06 88.5733 153.62 88.92C154.194 89.28 154.874 89.46 155.66 89.46C156.58 89.46 157.32 89.18 157.88 88.62C158.454 88.06 158.74 87.2467 158.74 86.18V84.34C158.354 84.86 157.827 85.3 157.16 85.66C156.507 86.0067 155.76 86.18 154.92 86.18C153.96 86.18 153.08 85.94 152.28 85.46C151.494 84.9667 150.867 84.2867 150.4 83.42C149.947 82.54 149.72 81.5467 149.72 80.44C149.72 79.3333 149.947 78.3533 150.4 77.5C150.867 76.6467 151.494 75.9867 152.28 75.52C153.08 75.04 153.96 74.8 154.92 74.8ZM158.74 80.48C158.74 79.72 158.58 79.06 158.26 78.5C157.954 77.94 157.547 77.5133 157.04 77.22C156.534 76.9267 155.987 76.78 155.4 76.78C154.814 76.78 154.267 76.9267 153.76 77.22C153.254 77.5 152.84 77.92 152.52 78.48C152.214 79.0267 152.06 79.68 152.06 80.44C152.06 81.2 152.214 81.8667 152.52 82.44C152.84 83.0133 153.254 83.4533 153.76 83.76C154.28 84.0533 154.827 84.2 155.4 84.2C155.987 84.2 156.534 84.0533 157.04 83.76C157.547 83.4667 157.954 83.04 158.26 82.48C158.58 81.9067 158.74 81.24 158.74 80.48ZM165.195 73.52C164.782 73.52 164.435 73.38 164.155 73.1C163.875 72.82 163.735 72.4733 163.735 72.06C163.735 71.6467 163.875 71.3 164.155 71.02C164.435 70.74 164.782 70.6 165.195 70.6C165.595 70.6 165.935 70.74 166.215 71.02C166.495 71.3 166.635 71.6467 166.635 72.06C166.635 72.4733 166.495 72.82 166.215 73.1C165.935 73.38 165.595 73.52 165.195 73.52ZM166.315 74.98V86H164.035V74.98H166.315ZM174.089 86.18C173.049 86.18 172.109 85.9467 171.269 85.48C170.429 85 169.769 84.3333 169.289 83.48C168.809 82.6133 168.569 81.6133 168.569 80.48C168.569 79.36 168.815 78.3667 169.309 77.5C169.802 76.6333 170.475 75.9667 171.329 75.5C172.182 75.0333 173.135 74.8 174.189 74.8C175.242 74.8 176.195 75.0333 177.049 75.5C177.902 75.9667 178.575 76.6333 179.069 77.5C179.562 78.3667 179.809 79.36 179.809 80.48C179.809 81.6 179.555 82.5933 179.049 83.46C178.542 84.3267 177.849 85 176.969 85.48C176.102 85.9467 175.142 86.18 174.089 86.18ZM174.089 84.2C174.675 84.2 175.222 84.06 175.729 83.78C176.249 83.5 176.669 83.08 176.989 82.52C177.309 81.96 177.469 81.28 177.469 80.48C177.469 79.68 177.315 79.0067 177.009 78.46C176.702 77.9 176.295 77.48 175.789 77.2C175.282 76.92 174.735 76.78 174.149 76.78C173.562 76.78 173.015 76.92 172.509 77.2C172.015 77.48 171.622 77.9 171.329 78.46C171.035 79.0067 170.889 79.68 170.889 80.48C170.889 81.6667 171.189 82.5867 171.789 83.24C172.402 83.88 173.169 84.2 174.089 84.2ZM187.623 74.8C188.489 74.8 189.263 74.98 189.943 75.34C190.636 75.7 191.176 76.2333 191.563 76.94C191.949 77.6467 192.143 78.5 192.143 79.5V86H189.883V79.84C189.883 78.8533 189.636 78.1 189.143 77.58C188.649 77.0467 187.976 76.78 187.123 76.78C186.269 76.78 185.589 77.0467 185.083 77.58C184.589 78.1 184.343 78.8533 184.343 79.84V86H182.063V74.98H184.343V76.24C184.716 75.7867 185.189 75.4333 185.763 75.18C186.349 74.9267 186.969 74.8 187.623 74.8ZM194.291 80.44C194.291 79.3333 194.517 78.3533 194.971 77.5C195.437 76.6467 196.064 75.9867 196.851 75.52C197.651 75.04 198.531 74.8 199.491 74.8C200.357 74.8 201.111 74.9733 201.751 75.32C202.404 75.6533 202.924 76.0733 203.311 76.58V74.98H205.611V86H203.311V84.36C202.924 84.88 202.397 85.3133 201.731 85.66C201.064 86.0067 200.304 86.18 199.451 86.18C198.504 86.18 197.637 85.94 196.851 85.46C196.064 84.9667 195.437 84.2867 194.971 83.42C194.517 82.54 194.291 81.5467 194.291 80.44ZM203.311 80.48C203.311 79.72 203.151 79.06 202.831 78.5C202.524 77.94 202.117 77.5133 201.611 77.22C201.104 76.9267 200.557 76.78 199.971 76.78C199.384 76.78 198.837 76.9267 198.331 77.22C197.824 77.5 197.411 77.92 197.091 78.48C196.784 79.0267 196.631 79.68 196.631 80.44C196.631 81.2 196.784 81.8667 197.091 82.44C197.411 83.0133 197.824 83.4533 198.331 83.76C198.851 84.0533 199.397 84.2 199.971 84.2C200.557 84.2 201.104 84.0533 201.611 83.76C202.117 83.4667 202.524 83.04 202.831 82.48C203.151 81.9067 203.311 81.24 203.311 80.48ZM210.885 71.2V86H208.605V71.2H210.885ZM218.314 79.02C218.314 77.66 218.628 76.44 219.254 75.36C219.894 74.28 220.754 73.44 221.834 72.84C222.928 72.2267 224.121 71.92 225.414 71.92C226.894 71.92 228.208 72.2867 229.354 73.02C230.514 73.74 231.354 74.7667 231.874 76.1H229.134C228.774 75.3667 228.274 74.82 227.634 74.46C226.994 74.1 226.254 73.92 225.414 73.92C224.494 73.92 223.674 74.1267 222.954 74.54C222.234 74.9533 221.668 75.5467 221.254 76.32C220.854 77.0933 220.654 77.9933 220.654 79.02C220.654 80.0467 220.854 80.9467 221.254 81.72C221.668 82.4933 222.234 83.0933 222.954 83.52C223.674 83.9333 224.494 84.14 225.414 84.14C226.254 84.14 226.994 83.96 227.634 83.6C228.274 83.24 228.774 82.6933 229.134 81.96H231.874C231.354 83.2933 230.514 84.32 229.354 85.04C228.208 85.76 226.894 86.12 225.414 86.12C224.108 86.12 222.914 85.82 221.834 85.22C220.754 84.6067 219.894 83.76 219.254 82.68C218.628 81.6 218.314 80.38 218.314 79.02ZM244.643 80.22C244.643 80.6333 244.616 81.0067 244.563 81.34H236.143C236.21 82.22 236.536 82.9267 237.123 83.46C237.71 83.9933 238.43 84.26 239.283 84.26C240.51 84.26 241.376 83.7467 241.883 82.72H244.343C244.01 83.7333 243.403 84.5667 242.523 85.22C241.656 85.86 240.576 86.18 239.283 86.18C238.23 86.18 237.283 85.9467 236.443 85.48C235.616 85 234.963 84.3333 234.483 83.48C234.016 82.6133 233.783 81.6133 233.783 80.48C233.783 79.3467 234.01 78.3533 234.463 77.5C234.93 76.6333 235.576 75.9667 236.403 75.5C237.243 75.0333 238.203 74.8 239.283 74.8C240.323 74.8 241.25 75.0267 242.063 75.48C242.876 75.9333 243.51 76.5733 243.963 77.4C244.416 78.2133 244.643 79.1533 244.643 80.22ZM242.263 79.5C242.25 78.66 241.95 77.9867 241.363 77.48C240.776 76.9733 240.05 76.72 239.183 76.72C238.396 76.72 237.723 76.9733 237.163 77.48C236.603 77.9733 236.27 78.6467 236.163 79.5H242.263ZM252.447 74.8C253.313 74.8 254.087 74.98 254.767 75.34C255.46 75.7 256 76.2333 256.387 76.94C256.773 77.6467 256.967 78.5 256.967 79.5V86H254.707V79.84C254.707 78.8533 254.46 78.1 253.967 77.58C253.473 77.0467 252.8 76.78 251.947 76.78C251.093 76.78 250.413 77.0467 249.907 77.58C249.413 78.1 249.167 78.8533 249.167 79.84V86H246.887V74.98H249.167V76.24C249.54 75.7867 250.013 75.4333 250.587 75.18C251.173 74.9267 251.793 74.8 252.447 74.8ZM262.535 76.84V82.94C262.535 83.3533 262.628 83.6533 262.815 83.84C263.015 84.0133 263.348 84.1 263.815 84.1H265.215V86H263.415C262.388 86 261.602 85.76 261.055 85.28C260.508 84.8 260.235 84.02 260.235 82.94V76.84H258.935V74.98H260.235V72.24H262.535V74.98H265.215V76.84H262.535ZM277.416 80.22C277.416 80.6333 277.39 81.0067 277.336 81.34H268.916C268.983 82.22 269.31 82.9267 269.896 83.46C270.483 83.9933 271.203 84.26 272.056 84.26C273.283 84.26 274.15 83.7467 274.656 82.72H277.116C276.783 83.7333 276.176 84.5667 275.296 85.22C274.43 85.86 273.35 86.18 272.056 86.18C271.003 86.18 270.056 85.9467 269.216 85.48C268.39 85 267.736 84.3333 267.256 83.48C266.79 82.6133 266.556 81.6133 266.556 80.48C266.556 79.3467 266.783 78.3533 267.236 77.5C267.703 76.6333 268.35 75.9667 269.176 75.5C270.016 75.0333 270.976 74.8 272.056 74.8C273.096 74.8 274.023 75.0267 274.836 75.48C275.65 75.9333 276.283 76.5733 276.736 77.4C277.19 78.2133 277.416 79.1533 277.416 80.22ZM275.036 79.5C275.023 78.66 274.723 77.9867 274.136 77.48C273.55 76.9733 272.823 76.72 271.956 76.72C271.17 76.72 270.496 76.9733 269.936 77.48C269.376 77.9733 269.043 78.6467 268.936 79.5H275.036ZM281.94 76.58C282.273 76.02 282.713 75.5867 283.26 75.28C283.82 74.96 284.48 74.8 285.24 74.8V77.16H284.66C283.767 77.16 283.087 77.3867 282.62 77.84C282.167 78.2933 281.94 79.08 281.94 80.2V86H279.66V74.98H281.94V76.58Z" fill="#2F2F2F"/>
</svg>
