<svg width="25" height="26" viewBox="0 0 25 26" fill="none" xmlns="http://www.w3.org/2000/svg">
<path d="M8.25 2.40625H3C2.5875 2.40625 2.25 2.74375 2.25 3.15625V21.1562C2.25 21.5688 2.5875 21.9062 3 21.9062H6.75V24.1562H3C1.34531 24.1562 0 22.8109 0 21.1562V3.15625C0 1.50156 1.34531 0.15625 3 0.15625H9.25781C10.0547 0.15625 10.8187 0.470313 11.3812 1.03281L17.1234 6.77969C17.6859 7.34219 18 8.10625 18 8.90313V15.9109H15.75V9.91094H11.625C9.75937 9.91094 8.25 8.40156 8.25 6.53594V2.41094V2.40625ZM14.8172 7.65625L10.5 3.33906V6.53125C10.5 7.15469 11.0016 7.65625 11.625 7.65625H14.8172ZM9.75 17.9688H11.25C12.8016 17.9688 14.0625 19.2297 14.0625 20.7812C14.0625 22.3328 12.8016 23.5938 11.25 23.5938H10.6875V24.9062C10.6875 25.4219 10.2656 25.8438 9.75 25.8438C9.23438 25.8438 8.8125 25.4219 8.8125 24.9062V18.9062C8.8125 18.3906 9.23438 17.9688 9.75 17.9688ZM11.25 21.7188C11.7656 21.7188 12.1875 21.2969 12.1875 20.7812C12.1875 20.2656 11.7656 19.8438 11.25 19.8438H10.6875V21.7188H11.25ZM15.75 17.9688H17.25C18.5953 17.9688 19.6875 19.0609 19.6875 20.4062V23.4062C19.6875 24.7516 18.5953 25.8438 17.25 25.8438H15.75C15.2344 25.8438 14.8125 25.4219 14.8125 24.9062V18.9062C14.8125 18.3906 15.2344 17.9688 15.75 17.9688ZM17.25 23.9688C17.5594 23.9688 17.8125 23.7156 17.8125 23.4062V20.4062C17.8125 20.0969 17.5594 19.8438 17.25 19.8438H16.6875V23.9688H17.25ZM20.8125 18.9062C20.8125 18.3906 21.2344 17.9688 21.75 17.9688H24C24.5156 17.9688 24.9375 18.3906 24.9375 18.9062C24.9375 19.4219 24.5156 19.8438 24 19.8438H22.6875V20.9688H24C24.5156 20.9688 24.9375 21.3906 24.9375 21.9062C24.9375 22.4219 24.5156 22.8438 24 22.8438H22.6875V24.9062C22.6875 25.4219 22.2656 25.8438 21.75 25.8438C21.2344 25.8438 20.8125 25.4219 20.8125 24.9062V18.9062Z" fill="#0B61B0"/>
</svg>
