<svg width="30" height="30" viewBox="0 0 30 30" fill="none" xmlns="http://www.w3.org/2000/svg">
<path d="M10.5092 4.17147C10.1389 3.28553 9.17324 2.81678 8.25449 3.06522L7.99668 3.13553C4.96856 3.96053 2.38106 6.89491 3.13574 10.4668C4.87481 18.6699 11.3295 25.1246 19.5326 26.8637C23.1092 27.623 26.0389 25.0308 26.8639 22.0027L26.9342 21.7449C27.1873 20.8215 26.7139 19.8558 25.8326 19.4902L21.2717 17.5918C20.4982 17.2683 19.6029 17.4933 19.0686 18.1449L17.2592 20.3574C13.9639 18.7215 11.3107 15.984 9.78731 12.623L11.8592 10.9355C12.5107 10.4058 12.7311 9.51053 12.4123 8.73241L10.5092 4.17147Z" fill="#0B61B0"/>
</svg>
