<svg width="30" height="30" viewBox="0 0 30 30" fill="none" xmlns="http://www.w3.org/2000/svg">
<path d="M10.5097 4.17183C10.1394 3.2859 9.17373 2.81715 8.25498 3.06558L7.99717 3.1359C4.96905 3.9609 2.38155 6.89527 3.13623 10.4671C4.8753 18.6703 11.33 25.125 19.5331 26.864C23.1097 27.6234 26.0394 25.0312 26.8644 22.0031L26.9347 21.7453C27.1878 20.8218 26.7144 19.8562 25.8331 19.4906L21.2722 17.5921C20.4987 17.2687 19.6034 17.4937 19.069 18.1453L17.2597 20.3578C13.9644 18.7218 11.3112 15.9843 9.7878 12.6234L11.8597 10.9359C12.5112 10.4062 12.7315 9.5109 12.4128 8.73277L10.5097 4.17183Z" fill="#0B61B0"/>
</svg>
