<svg width="70" height="81" viewBox="0 0 70 81" fill="none" xmlns="http://www.w3.org/2000/svg">
<path d="M0 14.25C0 6.65625 6.15625 0.5 13.75 0.5H58.75C64.9688 0.5 70 5.53125 70 11.75V51.75C70 55.6562 68.0156 59.0938 65 61.1094V73H66.25C68.3281 73 70 74.6719 70 76.75C70 78.8281 68.3281 80.5 66.25 80.5H12.5C5.59375 80.5 0 74.9062 0 68V14.25ZM12.5 63C9.73438 63 7.5 65.2344 7.5 68C7.5 70.7656 9.73438 73 12.5 73H57.5V63H12.5ZM7.5 56.5469C9.03125 55.875 10.7188 55.5 12.5 55.5H58.75C60.8281 55.5 62.5 53.8281 62.5 51.75V11.75C62.5 9.67188 60.8281 8 58.75 8H13.75C10.2969 8 7.5 10.7969 7.5 14.25V56.5469ZM33.5781 22.8281L35 24.25L36.4219 22.8281C37.9062 21.3438 39.9375 20.5 42.0469 20.5H42.5C46.6406 20.5 50 23.8594 50 28C50 36.3438 39.5469 42.9531 36.0938 44.9062C35.4062 45.2969 34.5938 45.2969 33.9062 44.9062C30.4531 42.9531 20 36.3438 20 28C20 23.8594 23.3594 20.5 27.5 20.5H27.9531C30.0625 20.5 32.0938 21.3438 33.5781 22.8281Z" fill="#3197D3"/>
</svg>
