<svg width="23" height="23" viewBox="0 0 23 23" fill="none" xmlns="http://www.w3.org/2000/svg">
<path d="M22.5 20.5629L17.934 15.9969C19.2054 14.3278 19.8867 12.2838 19.8711 10.1856C19.879 8.91152 19.6339 7.64851 19.1499 6.46985C18.666 5.29119 17.9529 4.22033 17.0519 3.31938C16.1509 2.41842 15.0801 1.7053 13.9014 1.22136C12.7228 0.737414 11.4598 0.492285 10.1856 0.500185C8.91152 0.492285 7.64851 0.737414 6.46985 1.22136C5.29119 1.7053 4.22033 2.41842 3.31938 3.31938C2.41842 4.22033 1.7053 5.29119 1.22136 6.46985C0.737414 7.64851 0.492285 8.91152 0.500185 10.1856C0.492285 11.4598 0.737414 12.7228 1.22136 13.9014C1.7053 15.0801 2.41842 16.1509 3.31938 17.0519C4.22033 17.9529 5.29119 18.666 6.46985 19.1499C7.64851 19.6339 8.91152 19.879 10.1856 19.8711C12.2838 19.8867 14.3278 19.2054 15.9969 17.934L20.5629 22.5L22.5 20.5629ZM3.26746 10.1856C3.2584 9.27461 3.43115 8.37093 3.77561 7.52748C4.12008 6.68404 4.62932 5.91778 5.27355 5.27355C5.91778 4.62932 6.68404 4.12008 7.52748 3.77561C8.37093 3.43115 9.27461 3.2584 10.1856 3.26746C11.0967 3.2584 12.0004 3.43115 12.8438 3.77561C13.6872 4.12008 14.4535 4.62932 15.0977 5.27355C15.742 5.91778 16.2512 6.68404 16.5957 7.52748C16.9401 8.37093 17.1129 9.27461 17.1038 10.1856C17.1129 11.0967 16.9401 12.0003 16.5957 12.8438C16.2512 13.6872 15.742 14.4535 15.0977 15.0977C14.4535 15.742 13.6872 16.2512 12.8438 16.5957C12.0004 16.9401 11.0967 17.1129 10.1856 17.1038C9.27461 17.1129 8.37093 16.9401 7.52748 16.5957C6.68404 16.2512 5.91778 15.742 5.27355 15.0977C4.62932 14.4535 4.12008 13.6872 3.77561 12.8438C3.43115 12.0003 3.2584 11.0967 3.26746 10.1856Z" fill="white"/>
</svg>
