<svg width="100" height="81" viewBox="0 0 100 81" fill="none" xmlns="http://www.w3.org/2000/svg">
<path d="M48.6875 5.34375C46.4844 2.29688 42.9531 0.5 39.2031 0.5C32.7344 0.5 27.5 5.73438 27.5 12.2031V12.5781C27.5 22.6406 40.3125 33.4219 46.5938 38.0938C48.625 39.6094 51.3594 39.6094 53.3906 38.0938C59.6719 33.4062 72.4844 22.6406 72.4844 12.5781V12.2031C72.4844 5.73438 67.25 0.5 60.7812 0.5C57.0312 0.5 53.5 2.29688 51.2969 5.34375L50 7.17188L48.6875 5.34375ZM22.5 21.75C22.5 15.5312 17.4688 10.5 11.25 10.5C5.03125 10.5 0 15.5312 0 21.75V55.5312C0 60.5 1.96875 65.2656 5.48438 68.7969L16.0938 79.4062C17.5625 80.875 19.9375 80.875 21.3906 79.4062C22.8438 77.9375 22.8594 75.5625 21.3906 74.1094L10.7969 63.4844C8.6875 61.375 7.5 58.5156 7.5 55.5312V21.75C7.5 19.6719 9.17188 18 11.25 18C13.3281 18 15 19.6719 15 21.75V44.5469C15 48.5469 16.5938 52.3906 19.4219 55.2344L21.9062 57.7188L26.0781 61.8906L28.5781 64.3906C30.0469 65.8594 32.4219 65.8594 33.875 64.3906C35.3281 62.9219 35.3438 60.5469 33.875 59.0938L31.375 56.5938L27.2031 52.4219C26.5781 51.7969 26.2344 50.9531 26.2344 50.0781C26.2344 48.25 27.7188 46.75 29.5625 46.75C30.4375 46.75 31.2812 47.0938 31.9062 47.7188L41.5 57.3125C44.5469 60.3438 46.25 64.4688 46.25 68.75V76.75C46.25 78.8281 47.9219 80.5 50 80.5C52.0781 80.5 53.75 78.8281 53.75 76.75V68.75C53.75 64.4688 55.4531 60.3438 58.4844 57.3125L68.0781 47.7188C68.7031 47.0938 69.5469 46.75 70.4219 46.75C72.25 46.75 73.75 48.2344 73.75 50.0781C73.75 50.9531 73.4062 51.7969 72.7812 52.4219L68.6094 56.5938L66.1094 59.0938C64.6406 60.5625 64.6406 62.9375 66.1094 64.3906C67.5781 65.8438 69.9531 65.8594 71.4062 64.3906L73.9062 61.8906C81.1562 54.6406 77.125 58.6875 80.5781 55.2188C83.4062 52.3906 85 48.5469 85 44.5312V21.75C85 19.6719 86.6719 18 88.75 18C90.8281 18 92.5 19.6719 92.5 21.75V55.5312C92.5 58.5156 91.3125 61.375 89.2031 63.4844L78.5938 74.0938C77.125 75.5625 77.125 77.9375 78.5938 79.3906C80.0625 80.8438 82.4375 80.8594 83.8906 79.3906L94.5 68.7812C98.0156 65.2656 99.9844 60.5 99.9844 55.5156L100 21.75C100 15.5312 94.9688 10.5 88.75 10.5C82.5312 10.5 77.5 15.5312 77.5 21.75V41.875C75.6094 40.2344 73.125 39.25 70.4219 39.25C67.5469 39.25 64.7969 40.3906 62.7656 42.4219L53.1719 52.0156C51.9688 53.2188 50.9062 54.5469 49.9844 55.9688C49.0781 54.5469 48.0156 53.2344 46.7969 52.0156L37.2031 42.4219C35.1719 40.3906 32.4219 39.25 29.5469 39.25C26.8438 39.25 24.375 40.2344 22.4688 41.875L22.5 21.75Z" fill="#3197D3"/>
</svg>
