<svg width="16" height="16" viewBox="0 0 16 16" fill="none" xmlns="http://www.w3.org/2000/svg">
<path d="M7.94642 3.125C5.61392 3.10375 1.83017 4.0525 0.113924 8.95875C0.113924 8.95875 -0.0910762 9.71625 0.186424 10.0425C0.498924 10.4075 0.973924 10.265 0.973924 10.265C0.973924 10.265 3.35892 13.5 7.94267 13.4688C12.5277 13.4375 14.5652 10.49 14.5652 10.49C14.5652 10.49 15.0477 10.8337 15.4639 10.625C15.8014 10.4563 15.9527 10.14 15.9577 9.58375C15.9714 8.17875 13.4364 3.17375 7.94642 3.125Z" fill="#EEEEEE"/>
<path d="M14.4595 8.55625C14.4595 10.585 11.4932 12.2275 7.82445 12.2275C4.1632 12.2275 1.18945 10.585 1.18945 8.55625C1.18945 6.5275 4.1632 4.885 7.82445 4.885C11.4932 4.885 14.4595 6.5275 14.4595 8.55625Z" fill="white"/>
<path d="M15.1944 8C13.8632 5.27125 11.2369 3.645 8.5394 3.4225C7.38065 3.33 6.27941 3.46625 5.27066 3.81C3.42066 4.445 1.88566 5.78125 0.884405 7.685C0.604405 8.21375 0.254405 8.8225 0.229405 9.44C0.218155 9.72625 0.311905 9.9675 0.608155 10.0312C1.07816 10.1337 1.33191 9.72375 1.63066 9.4375C1.81441 9.26 2.01941 9.00625 2.23691 8.875C2.38566 8.785 2.73816 8.72375 2.89691 8.8175C3.35441 9.09375 3.45566 9.85625 3.64566 10.32C4.74065 12.9837 8.58065 13.2888 10.5157 11.3912C10.9994 10.92 11.4819 10.1462 11.6457 9.48125C11.7232 9.16625 11.6369 8.08375 12.1182 8.0075C12.4419 7.95875 12.7932 8.31375 13.0269 8.49C13.5769 8.91 14.3969 10.4675 15.1794 10.4062C15.3894 10.3913 15.6544 10.0675 15.6982 9.8825C15.8432 9.27125 15.3232 8.265 15.1944 8Z" fill="#2F2F2F"/>
<path d="M7.16761 7.65875C6.86261 8.4875 5.58761 8.82625 4.99511 8.145C4.53011 7.6125 4.70261 6.89 5.19386 6.45125C6.08136 5.65875 7.56261 6.5875 7.16761 7.65875Z" fill="white"/>
</svg>
