<svg width="100" height="101" viewBox="0 0 100 101" fill="none" xmlns="http://www.w3.org/2000/svg">
<path d="M50 40.5C52.6522 40.5 55.1957 39.4464 57.0711 37.5711C58.9464 35.6957 60 33.1522 60 30.5C60 27.8478 58.9464 25.3043 57.0711 23.4289C55.1957 21.5536 52.6522 20.5 50 20.5C47.3478 20.5 44.8043 21.5536 42.9289 23.4289C41.0536 25.3043 40 27.8478 40 30.5C40 33.1522 41.0536 35.6957 42.9289 37.5711C44.8043 39.4464 47.3478 40.5 50 40.5ZM50 13C54.6413 13 59.0925 14.8437 62.3744 18.1256C65.6563 21.4075 67.5 25.8587 67.5 30.5C67.5 35.1413 65.6563 39.5925 62.3744 42.8744C59.0925 46.1563 54.6413 48 50 48C45.3587 48 40.9075 46.1563 37.6256 42.8744C34.3437 39.5925 32.5 35.1413 32.5 30.5C32.5 25.8587 34.3437 21.4075 37.6256 18.1256C40.9075 14.8437 45.3587 13 50 13ZM46.25 63C37.2812 63 30 70.2812 30 79.25V81.75C30 83.8281 28.3281 85.5 26.25 85.5C24.1719 85.5 22.5 83.8281 22.5 81.75V79.25C22.5 66.1406 33.1406 55.5 46.25 55.5H53.75C66.8594 55.5 77.5 66.1406 77.5 79.25V81.75C77.5 83.8281 75.8281 85.5 73.75 85.5C71.6719 85.5 70 83.8281 70 81.75V79.25C70 70.2812 62.7188 63 53.75 63H46.25ZM67.4062 48.4375C69.2344 46.6719 70.7812 44.625 72 42.375C72.9219 42.7812 73.9375 43 75 43C79.1406 43 82.5 39.6406 82.5 35.5C82.5 31.3594 79.1406 28 75 28H74.875C74.625 25.4062 73.9688 22.9375 72.9844 20.6406C73.6406 20.5469 74.3281 20.5 75 20.5C83.2812 20.5 90 27.2188 90 35.5C90 43.7812 83.2812 50.5 75 50.5C72.2344 50.5 69.6406 49.75 67.4062 48.4375ZM25 20.5C25.6875 20.5 26.3594 20.5469 27.0156 20.6406C26.0312 22.9375 25.375 25.4219 25.125 28H25C20.8594 28 17.5 31.3594 17.5 35.5C17.5 39.6406 20.8594 43 25 43C26.0625 43 27.0781 42.7812 28 42.375C29.2188 44.625 30.7656 46.6719 32.5938 48.4375C30.375 49.75 27.7812 50.5 25 50.5C16.7188 50.5 10 43.7812 10 35.5C10 27.2188 16.7188 20.5 25 20.5ZM23.3281 58C20.9688 60.5469 19.0312 63.4688 17.625 66.6875C11.6875 69.1094 7.5 74.9375 7.5 81.75C7.5 83.8281 5.82812 85.5 3.75 85.5C1.67188 85.5 0 83.8281 0 81.75C0 68.7656 10.4063 58.2188 23.3281 58ZM82.375 66.6875C80.9688 63.4688 79.0156 60.5312 76.6719 58C89.5938 58.2188 100 68.7656 100 81.75C100 83.8281 98.3281 85.5 96.25 85.5C94.1719 85.5 92.5 83.8281 92.5 81.75C92.5 74.9375 88.3125 69.1094 82.375 66.6875Z" fill="#3197D3"/>
</svg>
