<svg width="20" height="26" viewBox="0 0 20 26" fill="none" xmlns="http://www.w3.org/2000/svg">
<path d="M3.33333 2.4375H9.16667V6.90625C9.16667 8.92734 10.8438 10.5625 12.9167 10.5625H17.5V22.75C17.5 23.1969 17.125 23.5625 16.6667 23.5625H3.33333C2.875 23.5625 2.5 23.1969 2.5 22.75V3.25C2.5 2.80312 2.875 2.4375 3.33333 2.4375ZM11.6667 3.44805L16.4635 8.125H12.9167C12.224 8.125 11.6667 7.58164 11.6667 6.90625V3.44805ZM3.33333 0C1.49479 0 0 1.45742 0 3.25V22.75C0 24.5426 1.49479 26 3.33333 26H16.6667C18.5052 26 20 24.5426 20 22.75V9.4707C20 8.60742 19.651 7.77969 19.026 7.17031L12.6406 0.949609C12.0156 0.340234 11.1719 0 10.2865 0H3.33333ZM7.04688 13.9242C6.88021 13.2691 6.20312 12.873 5.53125 13.0355C4.85937 13.198 4.45312 13.8633 4.61979 14.5133L6.28646 21.0133C6.41667 21.5312 6.88021 21.902 7.42708 21.9324C7.97396 21.9629 8.47396 21.643 8.66667 21.1453L9.99479 17.6871L11.3229 21.1453C11.5156 21.643 12.0156 21.9629 12.5625 21.9324C13.1094 21.902 13.5729 21.5312 13.7031 21.0133L15.3698 14.5133C15.5365 13.8582 15.1302 13.198 14.4583 13.0355C13.7865 12.873 13.1094 13.2691 12.9427 13.9242L12.25 16.6258L11.1615 13.7922C10.9896 13.3148 10.5208 13 10 13C9.47917 13 9.01042 13.3148 8.82812 13.7922L7.73958 16.6258L7.04688 13.9242Z" fill="#0B61B0"/>
</svg>
